{
    "asset" : {
        "generator" : "Khronos glTF Blender I/O v3.2.43",
        "version" : "2.0"
    },
    "scene" : 0,
    "scenes" : [
        {
            "name" : "Scene",
            "nodes" : [
                0,
                1,
                2
            ]
        }
    ],
    "nodes" : [
        {
            "mesh" : 0,
            "name" : "machine_outershell"
        },
        {
            "mesh" : 1,
            "name" : "machine_screen"
        },
        {
            "mesh" : 2,
            "name" : "machine_outshell_coc"
        }
    ],
    "materials" : [
        {
            "alphaMode" : "BLEND",
            "doubleSided" : true,
            "name" : "machine_outershell",
            "pbrMetallicRoughness" : {
                "baseColorFactor" : [
                    0.007069098297506571,
                    0.007069098297506571,
                    0.007069098297506571,
                    1
                ],
                "metallicFactor" : 0.8999999761581421,
                "roughnessFactor" : 0.057575758546590805
            }
        },
        {
            "doubleSided" : true,
            "emissiveFactor" : [
                1,
                1,
                1
            ],
            "emissiveTexture" : {
                "index" : 0
            },
            "name" : "machine_screen_video",
            "pbrMetallicRoughness" : {
                "baseColorTexture" : {
                    "index" : 1
                },
                "metallicFactor" : 0.5
            }
        },
        {
            "doubleSided" : true,
            "emissiveFactor" : [
                0,
                1,
                0.008229495026171207
            ],
            "name" : "machine_outshell_coc",
            "pbrMetallicRoughness" : {
                "baseColorFactor" : [
                    0,
                    0,
                    0,
                    1
                ],
                "metallicFactor" : 0,
                "roughnessFactor" : 0
            }
        }
    ],
    "meshes" : [
        {
            "name" : "machine_outershell",
            "primitives" : [
                {
                    "attributes" : {
                        "POSITION" : 0,
                        "NORMAL" : 1,
                        "TEXCOORD_0" : 2,
                        "TEXCOORD_1" : 3
                    },
                    "indices" : 4,
                    "material" : 0
                }
            ]
        },
        {
            "name" : "machine_screen",
            "primitives" : [
                {
                    "attributes" : {
                        "POSITION" : 5,
                        "NORMAL" : 6,
                        "TEXCOORD_0" : 7
                    },
                    "indices" : 8,
                    "material" : 1
                }
            ]
        },
        {
            "name" : "machine_outshell_coc",
            "primitives" : [
                {
                    "attributes" : {
                        "POSITION" : 9,
                        "NORMAL" : 10,
                        "TEXCOORD_0" : 11,
                        "TEXCOORD_1" : 12
                    },
                    "indices" : 13,
                    "material" : 2
                }
            ]
        }
    ],
    "textures" : [
        {
            "sampler" : 0,
            "source" : 0
        },
        {
            "sampler" : 0,
            "source" : 0
        }
    ],
    "images" : [
        {
            "bufferView" : 9,
            "mimeType" : "image/png",
            "name" : "COC_glitch_0409_2"
        }
    ],
    "accessors" : [
        {
            "bufferView" : 0,
            "componentType" : 5126,
            "count" : 5202,
            "max" : [
                4.302610397338867,
                4.509176254272461,
                0.3866080343723297
            ],
            "min" : [
                -4.216627597808838,
                -4.361241817474365,
                -0.9318416118621826
            ],
            "type" : "VEC3"
        },
        {
            "bufferView" : 1,
            "componentType" : 5126,
            "count" : 5202,
            "type" : "VEC3"
        },
        {
            "bufferView" : 2,
            "componentType" : 5126,
            "count" : 5202,
            "type" : "VEC2"
        },
        {
            "bufferView" : 3,
            "componentType" : 5126,
            "count" : 5202,
            "type" : "VEC2"
        },
        {
            "bufferView" : 4,
            "componentType" : 5123,
            "count" : 17025,
            "type" : "SCALAR"
        },
        {
            "bufferView" : 5,
            "componentType" : 5126,
            "count" : 4,
            "max" : [
                1.0170482397079468,
                1.2571941614151,
                0.06075955927371979
            ],
            "min" : [
                -1.0044366121292114,
                -1.197417140007019,
                0.06075955927371979
            ],
            "type" : "VEC3"
        },
        {
            "bufferView" : 6,
            "componentType" : 5126,
            "count" : 4,
            "type" : "VEC3"
        },
        {
            "bufferView" : 7,
            "componentType" : 5126,
            "count" : 4,
            "type" : "VEC2"
        },
        {
            "bufferView" : 8,
            "componentType" : 5123,
            "count" : 6,
            "type" : "SCALAR"
        },
        {
            "bufferView" : 10,
            "componentType" : 5126,
            "count" : 2269,
            "max" : [
                -0.01696711778640747,
                1.50941002368927,
                0.3417205214500427
            ],
            "min" : [
                -1.0627796649932861,
                1.3148491382598877,
                0.29409345984458923
            ],
            "type" : "VEC3"
        },
        {
            "bufferView" : 11,
            "componentType" : 5126,
            "count" : 2269,
            "type" : "VEC3"
        },
        {
            "bufferView" : 12,
            "componentType" : 5126,
            "count" : 2269,
            "type" : "VEC2"
        },
        {
            "bufferView" : 13,
            "componentType" : 5126,
            "count" : 2269,
            "type" : "VEC2"
        },
        {
            "bufferView" : 14,
            "componentType" : 5123,
            "count" : 8892,
            "type" : "SCALAR"
        }
    ],
    "bufferViews" : [
        {
            "buffer" : 0,
            "byteLength" : 62424,
            "byteOffset" : 0
        },
        {
            "buffer" : 0,
            "byteLength" : 62424,
            "byteOffset" : 62424
        },
        {
            "buffer" : 0,
            "byteLength" : 41616,
            "byteOffset" : 124848
        },
        {
            "buffer" : 0,
            "byteLength" : 41616,
            "byteOffset" : 166464
        },
        {
            "buffer" : 0,
            "byteLength" : 34050,
            "byteOffset" : 208080
        },
        {
            "buffer" : 0,
            "byteLength" : 48,
            "byteOffset" : 242132
        },
        {
            "buffer" : 0,
            "byteLength" : 48,
            "byteOffset" : 242180
        },
        {
            "buffer" : 0,
            "byteLength" : 32,
            "byteOffset" : 242228
        },
        {
            "buffer" : 0,
            "byteLength" : 12,
            "byteOffset" : 242260
        },
        {
            "buffer" : 0,
            "byteLength" : 878487,
            "byteOffset" : 242272
        },
        {
            "buffer" : 0,
            "byteLength" : 27228,
            "byteOffset" : 1120760
        },
        {
            "buffer" : 0,
            "byteLength" : 27228,
            "byteOffset" : 1147988
        },
        {
            "buffer" : 0,
            "byteLength" : 18152,
            "byteOffset" : 1175216
        },
        {
            "buffer" : 0,
            "byteLength" : 18152,
            "byteOffset" : 1193368
        },
        {
            "buffer" : 0,
            "byteLength" : 17784,
            "byteOffset" : 1211520
        }
    ],
    "samplers" : [
        {
            "magFilter" : 9729,
            "minFilter" : 9987
        }
    ],
    "buffers" : [
        {
            "byteLength" : 1229304,
            "uri" : "data:application/octet-stream;base64,"
        }
    ]
}
