{
    "asset" : {
        "generator" : "Khronos glTF Blender I/O v3.2.43",
        "version" : "2.0"
    },
    "scene" : 0,
    "scenes" : [
        {
            "name" : "Scene",
            "nodes" : [
                0,
                1
            ]
        }
    ],
    "nodes" : [
        {
            "mesh" : 0,
            "name" : "machine_outershell",
            "rotation" : [
                0,
                0,
                1,
                1.6292068494294654e-07
            ],
            "scale" : [
                0.13008737564086914,
                0.47098806500434875,
                0.13008737564086914
            ],
            "translation" : [
                0.9919009804725647,
                1.110032081604004,
                0.22336992621421814
            ]
        },
        {
            "mesh" : 1,
            "name" : "machine_screen",
            "scale" : [
                1.3008733987808228,
                1.57960045337677,
                0.13008737564086914
            ],
            "translation" : [
                0.006305819842964411,
                0.02988852746784687,
                0.18871474266052246
            ]
        }
    ],
    "materials" : [
        {
            "alphaMode" : "BLEND",
            "doubleSided" : true,
            "name" : "machine_outershell",
            "pbrMetallicRoughness" : {
                "baseColorFactor" : [
                    0.007069098297506571,
                    0.007069098297506571,
                    0.007069098297506571,
                    1
                ],
                "metallicFactor" : 0.8999999761581421,
                "roughnessFactor" : 0.057575758546590805
            }
        },
        {
            "doubleSided" : true,
            "emissiveFactor" : [
                0,
                1,
                0.008229495026171207
            ],
            "name" : "machine_outshell_coc",
            "pbrMetallicRoughness" : {
                "baseColorFactor" : [
                    0,
                    0,
                    0,
                    1
                ],
                "metallicFactor" : 0,
                "roughnessFactor" : 0
            }
        },
        {
            "doubleSided" : true,
            "emissiveFactor" : [
                1,
                1,
                1
            ],
            "emissiveTexture" : {
                "index" : 0
            },
            "name" : "machine_screen_video",
            "pbrMetallicRoughness" : {
                "baseColorTexture" : {
                    "index" : 1
                },
                "metallicFactor" : 0.5
            }
        }
    ],
    "meshes" : [
        {
            "name" : "machine_outershell",
            "primitives" : [
                {
                    "attributes" : {
                        "POSITION" : 0,
                        "NORMAL" : 1,
                        "TEXCOORD_0" : 2,
                        "TEXCOORD_1" : 3
                    },
                    "indices" : 4,
                    "material" : 0
                },
                {
                    "attributes" : {
                        "POSITION" : 5,
                        "NORMAL" : 6,
                        "TEXCOORD_0" : 7,
                        "TEXCOORD_1" : 8
                    },
                    "indices" : 9,
                    "material" : 1
                }
            ]
        },
        {
            "name" : "machine_screen",
            "primitives" : [
                {
                    "attributes" : {
                        "POSITION" : 10,
                        "NORMAL" : 11,
                        "TEXCOORD_0" : 12
                    },
                    "indices" : 13,
                    "material" : 2
                }
            ]
        }
    ],
    "textures" : [
        {
            "sampler" : 0,
            "source" : 0
        },
        {
            "sampler" : 0,
            "source" : 0
        }
    ],
    "images" : [
        {
            "bufferView" : 14,
            "mimeType" : "image/png",
            "name" : "COC_glitch_0409_2"
        }
    ],
    "accessors" : [
        {
            "bufferView" : 0,
            "componentType" : 5126,
            "count" : 4298,
            "max" : [
                40.03870391845703,
                11.61659049987793,
                1.2548342943191528
            ],
            "min" : [
                -25.449909210205078,
                -7.2170515060424805,
                -8.880273818969727
            ],
            "type" : "VEC3"
        },
        {
            "bufferView" : 1,
            "componentType" : 5126,
            "count" : 4298,
            "type" : "VEC3"
        },
        {
            "bufferView" : 2,
            "componentType" : 5126,
            "count" : 4298,
            "type" : "VEC2"
        },
        {
            "bufferView" : 3,
            "componentType" : 5126,
            "count" : 4298,
            "type" : "VEC2"
        },
        {
            "bufferView" : 4,
            "componentType" : 5123,
            "count" : 17064,
            "type" : "SCALAR"
        },
        {
            "bufferView" : 5,
            "componentType" : 5126,
            "count" : 2198,
            "max" : [
                15.794618606567383,
                -0.43486571311950684,
                0.9097777605056763
            ],
            "min" : [
                7.755311965942383,
                -0.8479564785957336,
                0.5436617732048035
            ],
            "type" : "VEC3"
        },
        {
            "bufferView" : 6,
            "componentType" : 5126,
            "count" : 2198,
            "type" : "VEC3"
        },
        {
            "bufferView" : 7,
            "componentType" : 5126,
            "count" : 2198,
            "type" : "VEC2"
        },
        {
            "bufferView" : 8,
            "componentType" : 5126,
            "count" : 2198,
            "type" : "VEC2"
        },
        {
            "bufferView" : 9,
            "componentType" : 5123,
            "count" : 8556,
            "type" : "SCALAR"
        },
        {
            "bufferView" : 10,
            "componentType" : 5126,
            "count" : 4,
            "max" : [
                0.7769721746444702,
                0.7769721746444702,
                -0.9836095571517944
            ],
            "min" : [
                -0.7769721746444702,
                -0.7769721746444702,
                -0.9836095571517944
            ],
            "type" : "VEC3"
        },
        {
            "bufferView" : 11,
            "componentType" : 5126,
            "count" : 4,
            "type" : "VEC3"
        },
        {
            "bufferView" : 12,
            "componentType" : 5126,
            "count" : 4,
            "type" : "VEC2"
        },
        {
            "bufferView" : 13,
            "componentType" : 5123,
            "count" : 6,
            "type" : "SCALAR"
        }
    ],
    "bufferViews" : [
        {
            "buffer" : 0,
            "byteLength" : 51576,
            "byteOffset" : 0
        },
        {
            "buffer" : 0,
            "byteLength" : 51576,
            "byteOffset" : 51576
        },
        {
            "buffer" : 0,
            "byteLength" : 34384,
            "byteOffset" : 103152
        },
        {
            "buffer" : 0,
            "byteLength" : 34384,
            "byteOffset" : 137536
        },
        {
            "buffer" : 0,
            "byteLength" : 34128,
            "byteOffset" : 171920
        },
        {
            "buffer" : 0,
            "byteLength" : 26376,
            "byteOffset" : 206048
        },
        {
            "buffer" : 0,
            "byteLength" : 26376,
            "byteOffset" : 232424
        },
        {
            "buffer" : 0,
            "byteLength" : 17584,
            "byteOffset" : 258800
        },
        {
            "buffer" : 0,
            "byteLength" : 17584,
            "byteOffset" : 276384
        },
        {
            "buffer" : 0,
            "byteLength" : 17112,
            "byteOffset" : 293968
        },
        {
            "buffer" : 0,
            "byteLength" : 48,
            "byteOffset" : 311080
        },
        {
            "buffer" : 0,
            "byteLength" : 48,
            "byteOffset" : 311128
        },
        {
            "buffer" : 0,
            "byteLength" : 32,
            "byteOffset" : 311176
        },
        {
            "buffer" : 0,
            "byteLength" : 12,
            "byteOffset" : 311208
        },
        {
            "buffer" : 0,
            "byteLength" : 878487,
            "byteOffset" : 311220
        }
    ],
    "samplers" : [
        {
            "magFilter" : 9729,
            "minFilter" : 9987
        }
    ],
    "buffers" : [
        {
            "byteLength" : 1189708,
            "uri" : "data:application/octet-stream;base64,"
        }
    ]
}
