<svg id="图层_1" data-name="图层 1" xmlns="http://www.w3.org/2000/svg" viewBox="0 0 307.71 143.11"><defs><style>.cls-1{fill:#fff;}</style></defs><path class="cls-1" d="M261.4,132.52a78.29,78.29,0,0,1-20-.07c-41.93-5.5-101.08-9.77-130.68,4-48.77,22.75-10,64.75,3.3,73.77,0,0-47.11-72.52,124.52-46.87l50-23.31,60.91-28.42S296.91,128,261.4,132.52Z" transform="translate(-41.7 -111.66)"/><path class="cls-1" d="M152.57,203l-50,23.31L41.7,254.77s52.49-16.36,88-20.86a77.76,77.76,0,0,1,20,.07c41.94,5.49,101.09,9.77,130.69-4,48.76-22.76,9.95-64.76-3.31-73.78C277.08,156.16,324.2,228.69,152.57,203Z" transform="translate(-41.7 -111.66)"/></svg>