<svg width="33" height="33" viewBox="0 0 33 33" fill="none" xmlns="http://www.w3.org/2000/svg">
<g clip-path="url(#clip0_81_135)">
<path d="M32.9381 22.8935V9.59521L25.9359 16.5356L32.9381 22.8914M21.12 21.3055C20.5547 21.8688 19.8823 22.3155 19.1417 22.6196C18.4011 22.9237 17.6069 23.0793 16.8052 23.0774C15.1759 23.0774 13.6414 22.4479 12.4884 21.3055L8.73261 17.5819L0.672363 24.9024V26.1286C0.672363 27.7329 1.98824 29.0368 3.60524 29.0368H30.0052C31.6222 29.0368 32.9381 27.7329 32.9381 26.1306V24.8636L24.8964 17.5635L21.1221 21.3035" fill="white"/>
<path d="M30.065 4.0874H3.66505C2.05011 4.0874 0.736301 5.39127 0.736301 6.99352V7.60049L13.5877 20.3388C14.4643 21.2053 15.6296 21.6835 16.8671 21.6835C18.1067 21.6835 19.272 21.2053 20.1465 20.3388L33 7.60049V6.99352C33 5.39127 31.68 4.0874 30.065 4.0874ZM0.672363 9.59513V22.9302L7.69311 16.5539L0.672363 9.59513Z" fill="white"/>
</g>
<defs>
<clipPath id="clip0_81_135">
<rect width="33" height="32.6989" fill="white"/>
</clipPath>
</defs>
</svg>
