<svg width="423" height="603" viewBox="0 0 423 603" fill="none" xmlns="http://www.w3.org/2000/svg">
<path d="M15 1L1 16V602H408L422 587V1H15Z" fill="#010101" fill-opacity="0.59"/>
<rect x="1" y="16" width="407" height="586" stroke="white"/>
<rect x="15" y="1" width="407" height="586" stroke="white"/>
<path d="M422 587L408 602" stroke="white" stroke-linecap="round" stroke-dasharray="2 2"/>
<path d="M422 1L408 16" stroke="white" stroke-linecap="round" stroke-dasharray="2 2"/>
<path d="M1 16L15 1" stroke="white" stroke-linecap="round" stroke-dasharray="2 2"/>
<path d="M1 602L15 587" stroke="white" stroke-linecap="round" stroke-dasharray="2 2"/>
<path d="M55.968 104.416C59.008 104.416 61.28 103.2 63.104 101.056L61.632 99.392C60.096 101.12 58.368 102.08 56.096 102.08C51.488 102.08 48.608 98.272 48.608 92.224C48.608 86.208 51.616 82.496 56.192 82.496C58.24 82.496 59.84 83.392 61.056 84.736L62.528 83.008C61.184 81.536 59.008 80.16 56.16 80.16C50.24 80.16 45.888 84.768 45.888 92.288C45.888 99.872 50.176 104.416 55.968 104.416ZM81.0725 86.112C81.9045 87.712 82.3845 89.76 82.3845 92.192C82.3845 98.208 79.5365 102.08 75.2165 102.08C73.2965 102.08 71.6965 101.344 70.4805 100L81.0725 86.112ZM69.3285 98.368C68.4965 96.736 68.0165 94.656 68.0165 92.192C68.0165 86.208 70.8645 82.496 75.2165 82.496C77.1045 82.496 78.7045 83.2 79.9205 84.512L69.3285 98.368ZM85.2005 80.704L83.6645 79.584L81.4565 82.464C79.7925 80.96 77.6485 80.16 75.2165 80.16C69.3925 80.16 65.2965 84.736 65.2965 92.192C65.2965 95.616 66.1605 98.496 67.6645 100.576L65.1365 103.872L66.6405 104.992L68.9125 102.016C70.5765 103.552 72.7525 104.416 75.2165 104.416C81.0085 104.416 85.1365 99.68 85.1365 92.192C85.1365 88.768 84.2725 85.952 82.7685 83.904L85.2005 80.704ZM98.8743 104.416C101.914 104.416 104.186 103.2 106.01 101.056L104.538 99.392C103.002 101.12 101.274 102.08 99.0023 102.08C94.3943 102.08 91.5143 98.272 91.5143 92.224C91.5143 86.208 94.5223 82.496 99.0983 82.496C101.146 82.496 102.746 83.392 103.962 84.736L105.434 83.008C104.09 81.536 101.914 80.16 99.0663 80.16C93.1463 80.16 88.7943 84.768 88.7943 92.288C88.7943 99.872 93.0823 104.416 98.8743 104.416ZM133.396 83.552H120.532V80.416H133.396V83.552ZM133.396 88.448H120.532V85.248H133.396V88.448ZM135.476 78.624H118.516V90.24H135.476V78.624ZM116.82 81.024C115.7 79.904 113.3 78.464 111.411 77.568L110.164 79.104C112.116 80.064 114.452 81.6 115.572 82.72L116.82 81.024ZM115.252 89.312C114.068 88.256 111.668 86.912 109.748 86.08L108.564 87.648C110.548 88.544 112.916 89.984 114.036 91.04L115.252 89.312ZM114.612 94.4C113.044 98.016 110.932 102.208 109.428 104.672L111.316 105.984C112.916 103.008 114.836 99.04 116.244 95.68L114.612 94.4ZM120.82 97.664H126.836V95.744H120.82V91.776H118.804V103.296C117.684 103.488 116.66 103.68 115.764 103.84L116.212 105.792C119.188 105.248 123.124 104.48 126.932 103.68L126.804 101.76C124.756 102.144 122.708 102.56 120.82 102.912V97.664ZM131.156 103.968C130.068 103.968 129.908 103.808 129.908 102.912V99.072C132.404 98.016 135.22 96.736 137.236 95.392L135.7 93.792C134.324 94.912 132.084 96.128 129.908 97.184V91.776H127.86V102.912C127.86 105.248 128.468 105.888 130.9 105.888H134.996C137.108 105.888 137.684 104.832 137.908 100.928C137.332 100.768 136.5 100.48 136.052 100.096C135.956 103.424 135.796 103.968 134.836 103.968H131.156ZM149.108 81.024C147.892 79.872 145.396 78.432 143.411 77.568L142.196 79.104C144.244 80.032 146.676 81.568 147.892 82.72L149.108 81.024ZM147.572 89.344C146.292 88.288 143.732 86.912 141.716 86.112L140.564 87.712C142.612 88.608 145.108 90.048 146.388 91.104L147.572 89.344ZM143.348 105.952C145.044 102.976 147.188 98.944 148.756 95.552L147.156 94.24C145.428 97.856 143.124 102.112 141.492 104.576L143.348 105.952ZM162.132 104.256C161.492 104.256 161.044 104.192 160.596 104.096C160.116 103.904 159.956 103.232 159.956 102.208V98.08H165.332V99.712H167.348V86.72H165.332V96.096H159.956V83.008C163.156 82.368 166.132 81.632 168.404 80.736L166.836 79.008C165.076 79.744 162.644 80.416 159.956 80.992V77.376H157.844V81.408C154.9 81.984 151.764 82.464 148.852 82.816C149.108 83.328 149.396 84.096 149.492 84.608C152.18 84.288 155.06 83.872 157.844 83.392V96.096H152.756V86.72H150.74V100.32H152.756V98.08H157.844V101.952C157.844 104.64 158.26 105.28 159.092 105.728C159.828 106.08 160.916 106.208 161.812 106.208H165.108C166.004 106.208 167.124 106.144 167.796 105.984C168.532 105.792 169.044 105.408 169.332 104.736C169.62 104.16 169.812 102.592 169.876 101.344C169.172 101.152 168.404 100.768 167.892 100.32C167.86 101.792 167.764 102.88 167.636 103.36C167.476 103.84 167.092 104.032 166.74 104.128C166.356 104.224 165.62 104.256 164.948 104.256H162.132ZM195.636 95.264V103.072H179.188V95.264H195.636ZM177.044 106.464H179.188V105.056H195.636V106.368H197.876V93.312H177.044V106.464ZM174.58 79.392V81.376H184.18C183.028 85.632 180.532 90.08 172.596 92.16C173.044 92.544 173.556 93.408 173.78 93.952C182.324 91.456 185.14 86.528 186.484 81.376H196.532C196.084 86.624 195.636 88.832 194.868 89.44C194.58 89.728 194.196 89.76 193.524 89.76C192.788 89.76 190.804 89.76 188.724 89.568C189.108 90.112 189.364 90.944 189.396 91.52C191.38 91.68 193.396 91.68 194.356 91.648C195.412 91.552 196.052 91.392 196.66 90.72C197.684 89.76 198.196 87.104 198.772 80.352C198.804 80.064 198.836 79.392 198.836 79.392H174.58ZM211.092 82.848V96.928H207.54V82.848H211.092ZM212.98 98.88V80.928H205.684V101.92H207.54V98.88H212.98ZM218.324 94.784V87.008H222.836V90.336C222.836 91.648 222.772 93.184 222.388 94.784H218.324ZM226.996 81.92C226.228 83.04 225.236 84.32 224.276 85.28H217.684C218.676 84.224 219.508 83.072 220.276 81.92H226.996ZM228.948 94.784H224.372C224.756 93.216 224.82 91.712 224.82 90.368V87.008H228.948V94.784ZM233.204 96.64V94.784H230.996V85.28H226.74C227.956 83.968 229.204 82.368 230.036 80.928L228.66 79.968L228.308 80.064H221.364C221.844 79.232 222.228 78.368 222.612 77.568L220.5 77.184C219.347 79.904 217.236 83.328 214.1 85.888C214.548 86.176 215.252 86.88 215.572 87.36C215.828 87.104 216.116 86.88 216.372 86.624V94.784H214.132V96.64H221.78C220.532 99.488 217.908 102.432 212.34 104.96C212.788 105.312 213.428 105.984 213.716 106.432C219.156 103.808 221.972 100.736 223.38 97.728C225.428 101.6 228.692 104.768 232.532 106.368C232.82 105.824 233.396 105.056 233.876 104.64C230.004 103.264 226.708 100.256 224.852 96.64H233.204ZM242.868 110.272L244.468 109.504C241.716 104.96 240.34 99.552 240.34 94.08C240.34 88.608 241.716 83.2 244.468 78.656L242.868 77.888C239.924 82.656 238.164 87.808 238.164 94.08C238.164 100.384 239.924 105.504 242.868 110.272ZM257.749 104.416C260.789 104.416 263.061 103.2 264.885 101.056L263.413 99.392C261.877 101.12 260.149 102.08 257.877 102.08C253.269 102.08 250.389 98.272 250.389 92.224C250.389 86.208 253.397 82.496 257.973 82.496C260.021 82.496 261.621 83.392 262.837 84.736L264.309 83.008C262.965 81.536 260.789 80.16 257.941 80.16C252.021 80.16 247.669 84.768 247.669 92.288C247.669 99.872 251.957 104.416 257.749 104.416ZM273.007 104.416C275.183 104.416 277.167 103.296 278.831 101.888H278.927L279.151 104H281.295V93.28C281.295 89.12 279.631 86.272 275.439 86.272C272.655 86.272 270.223 87.552 268.719 88.544L269.775 90.368C271.087 89.44 272.943 88.448 275.023 88.448C277.999 88.448 278.735 90.752 278.703 93.088C271.279 93.92 267.983 95.776 267.983 99.552C267.983 102.688 270.159 104.416 273.007 104.416ZM273.711 102.304C271.951 102.304 270.511 101.472 270.511 99.392C270.511 97.024 272.591 95.552 278.703 94.848V99.904C276.943 101.472 275.47 102.304 273.711 102.304ZM289.794 104.416C290.53 104.416 290.946 104.32 291.362 104.192L290.978 102.176C290.658 102.24 290.53 102.24 290.37 102.24C289.922 102.24 289.57 101.888 289.57 101.024V78.528H286.978V100.832C286.978 103.136 287.81 104.416 289.794 104.416ZM298.731 104.416C299.467 104.416 299.883 104.32 300.299 104.192L299.915 102.176C299.595 102.24 299.467 102.24 299.307 102.24C298.859 102.24 298.507 101.888 298.507 101.024V78.528H295.915V100.832C295.915 103.136 296.747 104.416 298.731 104.416ZM304.853 104H307.445V86.72H304.853V104ZM306.165 83.008C307.189 83.008 308.053 82.272 308.053 81.248C308.053 80.128 307.189 79.456 306.165 79.456C305.077 79.456 304.277 80.128 304.277 81.248C304.277 82.272 305.077 83.008 306.165 83.008ZM313.446 104H316.038V91.36C317.83 89.504 319.142 88.544 320.966 88.544C323.366 88.544 324.39 90.016 324.39 93.344V104H327.014V93.024C327.014 88.608 325.35 86.272 321.734 86.272C319.366 86.272 317.574 87.616 315.91 89.248H315.814L315.558 86.72H313.446V104ZM338.581 112.032C343.829 112.032 347.189 109.248 347.189 106.112C347.189 103.264 345.205 102.016 341.237 102.016H337.781C335.413 102.016 334.709 101.184 334.709 100.064C334.709 99.072 335.221 98.432 335.861 97.888C336.661 98.304 337.653 98.528 338.517 98.528C342.005 98.528 344.757 96.16 344.757 92.48C344.757 90.912 344.117 89.568 343.253 88.736H346.901V86.72H340.917C340.309 86.496 339.477 86.272 338.517 86.272C335.029 86.272 332.117 88.704 332.117 92.448C332.117 94.496 333.237 96.192 334.357 97.088V97.216C333.493 97.856 332.437 98.976 332.437 100.416C332.437 101.792 333.109 102.72 334.005 103.264V103.392C332.405 104.448 331.445 105.888 331.445 107.36C331.445 110.336 334.325 112.032 338.581 112.032ZM338.517 96.736C336.437 96.736 334.645 95.04 334.645 92.448C334.645 89.792 336.373 88.224 338.517 88.224C340.629 88.224 342.389 89.824 342.389 92.448C342.389 95.04 340.597 96.736 338.517 96.736ZM338.933 110.208C335.669 110.208 333.749 108.96 333.749 107.04C333.749 105.984 334.325 104.864 335.637 103.936C336.437 104.128 337.301 104.224 337.845 104.224H341.013C343.381 104.224 344.629 104.8 344.629 106.496C344.629 108.352 342.389 110.208 338.933 110.208ZM61.76 133.112C62.592 134.712 63.072 136.76 63.072 139.192C63.072 145.208 60.224 149.08 55.904 149.08C53.984 149.08 52.384 148.344 51.168 147L61.76 133.112ZM50.016 145.368C49.184 143.736 48.704 141.656 48.704 139.192C48.704 133.208 51.552 129.496 55.904 129.496C57.792 129.496 59.392 130.2 60.608 131.512L50.016 145.368ZM65.888 127.704L64.352 126.584L62.144 129.464C60.48 127.96 58.336 127.16 55.904 127.16C50.08 127.16 45.984 131.736 45.984 139.192C45.984 142.616 46.848 145.496 48.352 147.576L45.824 150.872L47.328 151.992L49.6 149.016C51.264 150.552 53.44 151.416 55.904 151.416C61.696 151.416 65.824 146.68 65.824 139.192C65.824 135.768 64.96 132.952 63.456 130.904L65.888 127.704ZM78.6978 125.688C77.8978 125.336 76.9058 125.112 75.9138 125.112C72.6178 125.112 71.0178 127.224 71.0178 130.712V133.72L68.6497 133.88V135.864H71.0178V151H73.6418V135.864H77.3538V133.72H73.6418V130.744C73.6418 128.44 74.4418 127.224 76.1378 127.224C76.7458 127.224 77.4498 127.384 78.1218 127.704L78.6978 125.688ZM96.843 151.416C99.883 151.416 102.155 150.2 103.979 148.056L102.507 146.392C100.971 148.12 99.243 149.08 96.971 149.08C92.363 149.08 89.483 145.272 89.483 139.224C89.483 133.208 92.491 129.496 97.067 129.496C99.115 129.496 100.715 130.392 101.931 131.736L103.403 130.008C102.059 128.536 99.883 127.16 97.035 127.16C91.115 127.16 86.763 131.768 86.763 139.288C86.763 146.872 91.051 151.416 96.843 151.416ZM108.196 151H110.788V138.36C112.58 136.504 113.892 135.544 115.716 135.544C118.116 135.544 119.14 137.016 119.14 140.344V151H121.764V140.024C121.764 135.608 120.1 133.272 116.484 133.272C114.116 133.272 112.356 134.616 110.692 136.216L110.788 132.6V125.528H108.196V151ZM131.35 151.416C133.526 151.416 135.51 150.296 137.174 148.888H137.27L137.494 151H139.638V140.28C139.638 136.12 137.974 133.272 133.782 133.272C130.998 133.272 128.566 134.552 127.062 135.544L128.118 137.368C129.43 136.44 131.286 135.448 133.366 135.448C136.342 135.448 137.078 137.752 137.046 140.088C129.622 140.92 126.326 142.776 126.326 146.552C126.326 149.688 128.502 151.416 131.35 151.416ZM132.054 149.304C130.294 149.304 128.854 148.472 128.854 146.392C128.854 144.024 130.934 142.552 137.046 141.848V146.904C135.286 148.472 133.814 149.304 132.054 149.304ZM151.913 151.416C156.137 151.416 159.881 148.088 159.881 142.392C159.881 136.6 156.137 133.272 151.913 133.272C147.689 133.272 143.977 136.6 143.977 142.392C143.977 148.088 147.689 151.416 151.913 151.416ZM151.913 149.24C148.809 149.24 146.665 146.488 146.665 142.392C146.665 138.264 148.809 135.48 151.913 135.48C155.017 135.48 157.193 138.264 157.193 142.392C157.193 146.488 155.017 149.24 151.913 149.24ZM168.987 151.416C172.987 151.416 175.163 149.112 175.163 146.36C175.163 143.064 172.347 142.072 169.819 141.08C167.835 140.376 165.915 139.704 165.915 137.976C165.915 136.568 166.971 135.352 169.275 135.352C170.843 135.352 172.091 136.024 173.275 136.888L174.523 135.192C173.211 134.136 171.323 133.272 169.275 133.272C165.563 133.272 163.419 135.416 163.419 138.104C163.419 141.048 166.171 142.2 168.635 143.096C170.587 143.8 172.667 144.632 172.667 146.488C172.667 148.088 171.483 149.368 169.083 149.368C166.907 149.368 165.371 148.536 163.867 147.288L162.555 149.048C164.187 150.392 166.523 151.416 168.987 151.416ZM179.256 157.272C182.2 152.504 183.96 147.384 183.96 141.08C183.96 134.808 182.2 129.656 179.256 124.888L177.656 125.656C180.408 130.2 181.784 135.608 181.784 141.08C181.784 146.552 180.408 151.96 177.656 156.504L179.256 157.272ZM191.77 154.232C195.002 153.08 197.146 150.52 197.146 147.064C197.146 144.92 196.25 143.512 194.554 143.512C193.338 143.512 192.25 144.28 192.25 145.72C192.25 147.16 193.274 147.896 194.522 147.896C194.714 147.896 194.938 147.864 195.13 147.832C194.97 150.104 193.594 151.64 191.098 152.728L191.77 154.232ZM235.962 149.272V141.88H244.986V149.272H235.962ZM224.858 141.88H233.786V149.272H224.858V141.88ZM233.786 132.6V139.8H224.858V132.6H233.786ZM244.986 132.6V139.8H235.962V132.6H244.986ZM235.962 130.456V124.28H233.786V130.456H222.746V153.4H224.858V151.384H244.986V153.272H247.162V130.456H235.962ZM259.642 151.096C257.978 151.096 257.658 150.872 257.658 149.688V137.816H264.922C264.666 141.912 264.346 143.544 263.962 143.992C263.706 144.248 263.45 144.28 263.034 144.28C262.586 144.28 261.434 144.28 260.25 144.152C260.538 144.664 260.762 145.432 260.794 146.008C262.01 146.072 263.226 146.072 263.898 146.008C264.666 145.944 265.178 145.784 265.658 145.24C266.362 144.472 266.682 142.36 267.002 136.824C267.034 136.536 267.066 135.928 267.066 135.928H255.61V149.688C255.61 152.312 256.538 152.952 259.482 152.952H265.562C268.314 152.952 268.954 151.768 269.242 147.352C268.634 147.224 267.833 146.872 267.322 146.552C267.162 150.36 266.938 151.096 265.434 151.096H259.642ZM261.114 124.344C259.385 128.472 256.026 132.888 251.962 135.832C252.442 136.184 253.178 136.856 253.53 137.272C256.698 134.808 259.482 131.544 261.466 128.024C264.09 130.744 266.938 134.136 268.346 136.312L269.914 134.904C268.346 132.632 265.082 129.016 262.426 126.296C262.65 125.816 262.842 125.4 263.034 124.92L261.114 124.344ZM273.658 127.992H271.642V145.56H273.658V127.992ZM277.882 124.76V150.488C277.882 151.096 277.626 151.288 277.05 151.32C276.442 151.32 274.426 151.352 272.154 151.288C272.506 151.864 272.794 152.76 272.922 153.304C275.898 153.336 277.594 153.272 278.586 152.92C279.546 152.568 279.994 151.992 279.994 150.456V124.76H277.882ZM301.882 130.2V134.552H292.73V136.408H313.178V134.552H303.994V130.2H311.77V128.344H303.994V124.28H301.882V128.344H297.946C298.426 127.32 298.874 126.264 299.258 125.176L297.274 124.728C296.282 127.736 294.586 130.68 292.57 132.664C293.114 132.856 293.978 133.368 294.394 133.688C295.29 132.728 296.154 131.512 296.922 130.2H301.882ZM297.722 140.824H308.634V146.232H297.722V140.824ZM310.778 147.992V139.032H295.642V147.992H310.778ZM292.186 130.008C291.098 128.472 288.698 126.424 286.586 125.048L285.018 126.328C287.13 127.736 289.498 129.848 290.522 131.416L292.186 130.008ZM291.258 136.824H284.634V138.84H289.21V147.16C287.61 148.536 285.754 150.008 284.25 151L285.402 153.112C287.13 151.736 288.762 150.328 290.298 148.952C292.345 151.48 295.258 152.632 299.482 152.792C302.906 152.92 309.53 152.856 312.954 152.696C313.018 152.056 313.402 151.064 313.658 150.552C309.978 150.808 302.842 150.904 299.45 150.744C295.674 150.616 292.826 149.496 291.258 147.064V136.824ZM329.978 134.616V130.296H337.434C335.866 131.832 334.138 133.272 332.314 134.616H329.978ZM338.97 145.208H325.658V141.848H338.97V145.208ZM325.658 150.488V146.936H338.97V150.488H325.658ZM345.082 136.536V134.616H335.514C338.522 132.184 341.306 129.4 343.61 126.392L341.818 125.4C340.666 126.872 339.45 128.312 338.106 129.656V128.408H329.978V124.28H327.898V128.408H319.61V130.296H327.898V134.616H316.794V136.536H329.562C325.434 139.192 320.89 141.4 316.154 143.064C316.57 143.512 317.242 144.376 317.53 144.824C319.578 144.056 321.562 143.16 323.546 142.2V153.4H325.658V152.344H338.97V153.272H341.146V140.024H327.578C329.434 138.936 331.258 137.784 333.017 136.536H345.082ZM364.058 150.264V142.104H374.266V140.056H364.058V132.76H375.578V130.712H365.146L366.65 129.624C365.434 128.12 362.906 125.912 360.826 124.408L359.098 125.592C361.082 127.096 363.45 129.208 364.698 130.712H350.362V132.76H361.818V140.056H351.77V142.104H361.818V150.264H348.858V152.344H377.178V150.264H364.058ZM68.288 174.48V178.096H50.656V174.48H68.288ZM68.032 185.392C72 185.392 72.896 184.56 73.312 181.328C72.672 181.232 71.808 180.976 71.232 180.624C71.008 183.088 70.56 183.568 67.936 183.568H54.848C51.328 183.568 50.656 183.248 50.656 181.904V179.984H70.368V172.624H48.48V181.904C48.48 184.752 49.984 185.392 55.04 185.392H68.032ZM74.144 188.784H67.04V186.224H64.896V188.784H46.08V190.8H52.352L50.976 191.952C52.96 193.68 55.136 196.144 56.096 197.808L57.696 196.432C56.672 194.8 54.496 192.464 52.48 190.8H64.896V197.712C64.896 198.224 64.704 198.384 64.096 198.416C63.488 198.416 61.216 198.448 58.816 198.384C59.136 198.928 59.456 199.696 59.552 200.272C62.656 200.272 64.544 200.272 65.632 199.952C66.688 199.664 67.04 199.088 67.04 197.744V190.8H74.144V188.784ZM87.904 185.264H80.896V178.288H87.904V185.264ZM80.896 195.12V187.184H87.904V195.12H80.896ZM83.872 171.184C83.616 172.688 83.04 174.864 82.496 176.368H78.944V199.6H80.896V197.04H89.856V176.368H84.448C85.024 174.992 85.632 173.2 86.144 171.632L83.872 171.184ZM105.536 176.304H95.84C96.384 174.768 96.832 173.168 97.248 171.568L95.2 171.12C94.208 175.536 92.48 179.952 90.304 182.8C90.784 183.088 91.712 183.664 92.096 183.984C93.184 182.448 94.208 180.464 95.104 178.288H103.488C103.072 191.28 102.56 196.208 101.504 197.328C101.184 197.744 100.8 197.808 100.16 197.808C99.456 197.808 97.536 197.808 95.456 197.616C95.84 198.192 96.096 199.056 96.16 199.696C97.952 199.792 99.776 199.856 100.864 199.76C101.92 199.664 102.656 199.408 103.296 198.544C104.576 197.008 105.024 192.112 105.536 177.424V176.304ZM100.512 190.704C99.488 188.784 97.248 185.712 95.392 183.44L93.76 184.4C95.552 186.704 97.728 189.872 98.72 191.824L100.512 190.704ZM122.112 171.92C121.568 173.2 120.48 175.056 119.68 176.208L121.12 176.912C121.984 175.856 123.04 174.192 123.968 172.752L122.112 171.92ZM114.56 176.208C114.24 175.056 113.376 173.36 112.448 172.048L110.816 172.752C111.712 174.064 112.576 175.824 112.864 176.944L114.56 176.208ZM128.512 179.12H134.4C133.792 183.312 132.864 186.832 131.392 189.808C130.048 186.736 129.088 183.152 128.448 179.312L128.512 179.12ZM120 190.096C119.584 191.92 118.88 193.424 117.856 194.64C116.576 194 115.2 193.392 113.856 192.848C114.336 191.984 114.816 191.056 115.296 190.096H120ZM138.56 179.12V177.136H129.088C129.6 175.376 130.016 173.488 130.336 171.568L128.192 171.248C127.264 176.88 125.6 182.224 122.912 185.616C123.392 185.936 124.288 186.64 124.64 187.024C125.568 185.776 126.4 184.304 127.136 182.672C127.872 186.128 128.832 189.296 130.144 192.016C128.512 194.512 126.336 196.496 123.52 198.032C122.496 197.232 121.184 196.4 119.68 195.6C120.864 194.128 121.632 192.304 122.08 190.096H124.96V188.304H116.192C116.608 187.472 116.992 186.672 117.344 185.904L117.024 185.84H118.24V180.944C119.808 182.064 121.952 183.696 122.784 184.464L123.968 182.928C123.104 182.288 119.616 180.048 118.24 179.248V178.992H124.8V177.2H118.24V171.248H116.256V177.2H109.568V178.992H115.616C114.08 181.136 111.616 183.216 109.28 184.272C109.696 184.656 110.208 185.36 110.464 185.872C112.512 184.752 114.656 182.896 116.256 180.912V185.68L115.36 185.488C114.976 186.352 114.496 187.312 114.016 188.304H109.408V190.096H113.12C112.256 191.792 111.392 193.424 110.656 194.672L112.48 195.376L113.024 194.448C114.176 194.928 115.296 195.44 116.416 196.016C114.72 197.264 112.48 198.064 109.472 198.608C109.888 199.056 110.304 199.824 110.464 200.4C113.856 199.664 116.416 198.576 118.272 197.008C119.776 197.872 121.12 198.768 122.112 199.568L122.72 198.928C123.104 199.408 123.52 200.112 123.712 200.464C126.912 198.832 129.376 196.72 131.264 194.128C132.864 196.784 134.848 198.928 137.344 200.4C137.664 199.824 138.368 199.024 138.88 198.576C136.256 197.2 134.176 194.96 132.576 192.112C134.56 188.656 135.808 184.368 136.608 179.12H138.56ZM144.8 176.784H167.104V182.128H169.28V174.8H157.056V171.184H154.88V174.8H142.72V182.128H144.8V176.784ZM169.696 188.464H157.152V187.312C159.872 185.84 162.816 183.568 164.768 181.392L163.36 180.336L162.912 180.464H147.52V182.416H160.896C159.552 183.696 157.824 185.008 156.128 186H154.944V188.464H142.4V190.48H154.944V197.68C154.944 198.128 154.784 198.288 154.208 198.288C153.632 198.32 151.648 198.32 149.44 198.256C149.824 198.832 150.272 199.76 150.432 200.336C153.088 200.336 154.72 200.336 155.744 200.016C156.8 199.664 157.152 199.024 157.152 197.712V190.48H169.696V188.464ZM180.352 175.376C179.328 174.288 177.312 172.816 175.68 171.824L174.304 173.136C175.968 174.16 177.952 175.792 178.944 176.816L180.352 175.376ZM179.264 183.664C178.24 182.704 176.128 181.328 174.496 180.432L173.216 181.84C174.912 182.768 176.96 184.24 177.952 185.232L179.264 183.664ZM175.84 200.112C177.152 197.104 178.72 192.976 179.808 189.488L178.112 188.4C176.928 192.08 175.168 196.432 173.952 199.024L175.84 200.112ZM183.328 185.424H189.248V188.176H183.328V185.424ZM183.328 181.2H189.248V183.888H183.328V181.2ZM191.968 194.512V192.592H187.296V189.776H191.072V179.6H187.296V176.816H191.84V174.928H187.296V171.312H185.344V174.928H180.864V176.816H185.344V179.6H181.568V189.776H185.344V192.592H180.256V194.512H185.344V200.432H187.296V194.512H191.968ZM195.232 187.568C195.264 186.736 195.264 185.904 195.264 185.168V181.904H199.68V187.568H195.232ZM199.68 174.416V179.984H195.264V174.416H199.68ZM201.6 172.496H193.344V185.168C193.344 189.68 193.056 195.376 190.08 199.312C190.528 199.504 191.328 200.112 191.68 200.464C193.952 197.488 194.784 193.36 195.104 189.52H199.68V197.68C199.68 198.16 199.52 198.288 199.104 198.32C198.72 198.32 197.344 198.352 195.808 198.288C196.064 198.864 196.32 199.792 196.416 200.368C198.496 200.368 199.776 200.304 200.608 199.952C201.344 199.6 201.6 198.928 201.6 197.712V172.496ZM214.688 184.912C219.008 184.72 225.152 184.432 231.04 184.112C231.712 184.912 232.256 185.68 232.64 186.352L234.4 185.296C233.248 183.376 230.624 180.592 228.352 178.672L226.688 179.6C227.648 180.432 228.64 181.392 229.536 182.352C226.368 182.48 223.2 182.608 220.352 182.704C221.344 181.136 222.4 179.184 223.296 177.424H234.304V175.472H224.736V171.28H222.592V175.472H214.048V177.424H220.896C220.16 179.152 219.136 181.232 218.144 182.8C216.8 182.832 215.552 182.864 214.464 182.896L214.688 184.912ZM213.92 175.024C212.704 173.872 210.208 172.432 208.224 171.568L207.008 173.104C209.056 174.032 211.488 175.568 212.704 176.72L213.92 175.024ZM212.384 183.344C211.104 182.288 208.544 180.912 206.528 180.112L205.376 181.712C207.424 182.608 209.92 184.048 211.2 185.104L212.384 183.344ZM211.968 188.24C210.24 191.856 207.936 196.112 206.304 198.576L208.16 199.952C209.856 196.976 212 192.944 213.568 189.552L211.968 188.24ZM216.96 189.584C216.96 192.592 216.544 196.24 212.608 198.96C213.088 199.28 213.792 199.92 214.144 200.368C218.4 197.264 218.912 193.2 218.912 189.648V186.256H216.96V189.584ZM222.592 199.024H224.512V186.416H222.592V199.024ZM231.04 198.192C230.816 198.192 230.592 198.16 230.464 198.064C230.304 197.904 230.272 197.552 230.272 196.912V186.256H228.32V196.656C228.32 198.512 228.48 198.992 228.896 199.408C229.344 199.76 230.016 199.92 230.592 199.92H232.16C232.672 199.92 233.312 199.792 233.632 199.6C234.048 199.344 234.304 198.96 234.464 198.384C234.624 197.808 234.72 196.112 234.752 194.736C234.24 194.576 233.6 194.256 233.248 193.904C233.216 195.44 233.184 196.656 233.12 197.168C233.056 197.68 232.928 197.936 232.768 198.032C232.608 198.16 232.32 198.192 232.032 198.192H231.04ZM241.568 189.2C244.256 186.32 246.944 182.736 249.216 179.088L247.52 178.064C246.848 179.216 246.08 180.4 245.312 181.52L240.416 182.064C242.496 179.28 244.512 175.696 246.144 172.176L244.192 171.28C242.72 175.216 240.16 179.376 239.392 180.432C238.624 181.552 238.048 182.288 237.504 182.416C237.728 182.992 238.048 183.984 238.144 184.432C238.592 184.208 239.424 183.984 244 183.408C242.4 185.584 240.896 187.376 240.256 188.048C239.2 189.2 238.368 190 237.696 190.16C237.952 190.672 238.24 191.664 238.368 192.048C239.04 191.696 240.096 191.408 248.832 189.648C248.8 189.2 248.768 188.432 248.832 187.856L241.568 189.2ZM248.64 193.712C244.544 194.64 240.384 195.632 237.664 196.176L238.08 198.256C241.056 197.456 244.992 196.496 248.864 195.504L248.64 193.712ZM253.44 191.248H261.664V197.744H253.44V191.248ZM261.664 174.832V181.008H253.44V174.832H261.664ZM253.44 182.96H261.664V189.328H253.44V182.96ZM263.776 197.744V172.848H251.424V197.744H248.128V199.696H266.56V197.744H263.776ZM294.208 185.424H284.224V175.6H294.208V185.424ZM296.384 173.584H282.112V187.472H296.384V173.584ZM273.44 189.296C276 186.416 278.528 182.832 280.736 179.248L278.944 178.192C278.304 179.376 277.6 180.56 276.832 181.712L272.256 182.224C274.24 179.408 276.192 175.856 277.696 172.336L275.68 171.376C274.304 175.28 271.904 179.472 271.168 180.528C270.432 181.648 269.888 182.416 269.312 182.544C269.568 183.12 269.92 184.144 270.016 184.592C270.432 184.368 271.232 184.176 275.584 183.568C274.048 185.776 272.64 187.504 272 188.176C270.976 189.36 270.24 190.128 269.568 190.256C269.792 190.832 270.112 191.792 270.24 192.208C270.912 191.792 271.968 191.536 280.8 189.776C280.768 189.296 280.736 188.464 280.8 187.92L273.44 189.296ZM280.736 193.808C276.544 194.768 272.256 195.76 269.44 196.304L269.856 198.416C272.896 197.648 276.992 196.656 280.928 195.664L280.736 193.808ZM284.448 190.704C283.488 194 281.792 197.136 279.712 199.184C280.224 199.44 281.184 200.08 281.568 200.4C283.68 198.16 285.536 194.768 286.592 191.152L284.448 190.704ZM291.648 191.344C293.376 194.128 295.2 197.808 295.872 200.08L297.984 199.216C297.216 197.008 295.328 193.36 293.568 190.64L291.648 191.344ZM304.832 201.232C308.064 200.08 310.208 197.52 310.208 194.064C310.208 191.92 309.312 190.512 307.616 190.512C306.4 190.512 305.312 191.28 305.312 192.72C305.312 194.16 306.336 194.896 307.584 194.896C307.776 194.896 308 194.864 308.192 194.832C308.032 197.104 306.656 198.64 304.16 199.728L304.832 201.232ZM55.968 245.416C59.008 245.416 61.28 244.2 63.104 242.056L61.632 240.392C60.096 242.12 58.368 243.08 56.096 243.08C51.488 243.08 48.608 239.272 48.608 233.224C48.608 227.208 51.616 223.496 56.192 223.496C58.24 223.496 59.84 224.392 61.056 225.736L62.528 224.008C61.184 222.536 59.008 221.16 56.16 221.16C50.24 221.16 45.888 225.768 45.888 233.288C45.888 240.872 50.176 245.416 55.968 245.416ZM81.0725 227.112C81.9045 228.712 82.3845 230.76 82.3845 233.192C82.3845 239.208 79.5365 243.08 75.2165 243.08C73.2965 243.08 71.6965 242.344 70.4805 241L81.0725 227.112ZM69.3285 239.368C68.4965 237.736 68.0165 235.656 68.0165 233.192C68.0165 227.208 70.8645 223.496 75.2165 223.496C77.1045 223.496 78.7045 224.2 79.9205 225.512L69.3285 239.368ZM85.2005 221.704L83.6645 220.584L81.4565 223.464C79.7925 221.96 77.6485 221.16 75.2165 221.16C69.3925 221.16 65.2965 225.736 65.2965 233.192C65.2965 236.616 66.1605 239.496 67.6645 241.576L65.1365 244.872L66.6405 245.992L68.9125 243.016C70.5765 244.552 72.7525 245.416 75.2165 245.416C81.0085 245.416 85.1365 240.68 85.1365 233.192C85.1365 229.768 84.2725 226.952 82.7685 224.904L85.2005 221.704ZM98.8743 245.416C101.914 245.416 104.186 244.2 106.01 242.056L104.538 240.392C103.002 242.12 101.274 243.08 99.0023 243.08C94.3943 243.08 91.5143 239.272 91.5143 233.224C91.5143 227.208 94.5223 223.496 99.0983 223.496C101.146 223.496 102.746 224.392 103.962 225.736L105.434 224.008C104.09 222.536 101.914 221.16 99.0663 221.16C93.1463 221.16 88.7943 225.768 88.7943 233.288C88.7943 240.872 93.0823 245.416 98.8743 245.416ZM116.244 218.216C114.356 223.08 111.22 227.912 107.956 230.92C108.372 231.432 108.948 232.488 109.172 233C110.452 231.752 111.7 230.248 112.852 228.616V247.56H114.9V225.512C116.18 223.368 117.332 221.096 118.228 218.824L116.244 218.216ZM120.372 233.992V228.936H126.42V232.328C126.42 232.904 126.42 233.416 126.388 233.992H120.372ZM134.708 228.936V233.992H128.468C128.5 233.448 128.5 232.904 128.5 232.36V228.936H134.708ZM136.756 235.816V227.144H128.5V223.848H137.844V221.896H128.5V218.376H126.42V221.896H117.428V223.848H126.42V227.144H118.42V235.816H126.26C126.036 237.672 125.556 239.432 124.436 241C122.644 239.72 121.204 238.248 120.18 236.552L118.42 237.128C119.604 239.208 121.204 240.968 123.188 242.408C121.684 243.784 119.476 244.936 116.276 245.8C116.724 246.216 117.332 247.08 117.556 247.56C120.98 246.536 123.316 245.192 124.916 243.56C128.212 245.544 132.276 246.824 136.852 247.496C137.14 246.888 137.652 246.024 138.132 245.576C133.524 245.032 129.428 243.88 126.164 242.088C127.508 240.168 128.084 238.056 128.34 235.816H136.756ZM156.372 235.56V229.96H165.3V235.56H156.372ZM146.196 235.56C146.292 234.344 146.324 233.192 146.324 232.072V229.96H154.26V235.56H146.196ZM154.26 222.568V227.976H146.324V222.568H154.26ZM165.3 227.976H156.372V222.568H165.3V227.976ZM167.412 220.552H144.244V232.072C144.244 236.584 143.891 242.216 140.372 246.184C140.852 246.44 141.684 247.176 141.972 247.592C144.468 244.808 145.524 241.16 146.004 237.576H154.26V247.144H156.372V237.576H165.3V244.392C165.3 245 165.076 245.192 164.468 245.224C163.828 245.256 161.652 245.288 159.348 245.192C159.668 245.768 160.02 246.696 160.084 247.24C163.092 247.272 164.948 247.272 166.004 246.888C166.996 246.536 167.412 245.864 167.412 244.392V220.552ZM195.476 223.208H179.028V220.808H195.476V223.208ZM195.476 227.112H179.028V224.712H195.476V227.112ZM197.556 219.272H176.98V228.68H197.556V219.272ZM184.02 234.696H177.94V232.36H184.02V234.696ZM177.94 243.112V240.36H184.02V242.44L177.94 243.112ZM177.94 236.328H184.02V238.728H177.94V236.328ZM201.14 232.36V230.568H173.172V232.36H175.988V243.336L172.884 243.656L173.108 245.544C176.084 245.192 180.052 244.68 184.02 244.168V247.4H186.068V232.36H201.14ZM197.524 236.232C196.628 238.152 195.348 239.816 193.812 241.224C192.404 239.784 191.284 238.12 190.516 236.232H197.524ZM198.836 234.44L198.452 234.504H187.22V236.232H190.036L188.724 236.616C189.588 238.824 190.836 240.744 192.372 242.408C190.42 243.816 188.244 244.872 186.068 245.512C186.452 245.928 186.996 246.696 187.22 247.176C189.524 246.408 191.764 245.288 193.78 243.752C195.7 245.384 197.972 246.6 200.564 247.368C200.884 246.888 201.428 246.12 201.876 245.704C199.348 245.064 197.108 243.976 195.252 242.504C197.396 240.52 199.124 238.024 200.116 234.952L198.836 234.44ZM219.284 221.64H213.364V218.376H211.284V221.64H205.268V223.464H219.284V221.64ZM215.476 228.744C216.084 227.56 216.788 225.704 217.396 224.072L215.444 223.592C215.124 225 214.388 227.048 213.78 228.328L215.476 228.744ZM210.356 228.296C210.196 227.048 209.652 225.128 208.948 223.656L207.284 224.04C207.891 225.544 208.436 227.528 208.564 228.808L210.356 228.296ZM218.516 241.16C217.748 240.456 214.58 237.896 213.364 236.936V236.104H219.444V234.248H213.364V230.76H219.668V228.936H204.82V230.76H211.284V234.248H204.916V236.104H210.804C209.204 238.984 206.58 241.96 204.276 243.496C204.724 243.88 205.364 244.52 205.716 245C207.572 243.56 209.652 241.16 211.284 238.568V247.336H213.364V238.984C214.74 240.232 216.532 241.928 217.236 242.76L218.516 241.16ZM233.748 229.032H222.9V223.112C226.516 222.408 230.58 221.416 233.3 220.2L231.572 218.632C229.524 219.656 225.876 220.68 222.516 221.384L220.884 220.872V232.008C220.884 236.552 220.436 242.088 216.276 246.088C216.788 246.376 217.524 247.08 217.812 247.56C222.292 243.144 222.9 236.808 222.9 232.04V231.016H227.988V247.208H230.036V231.016H233.748V229.032ZM247.092 232.264H240.084V225.288H247.092V232.264ZM240.084 242.12V234.184H247.092V242.12H240.084ZM243.06 218.184C242.804 219.688 242.228 221.864 241.684 223.368H238.132V246.6H240.084V244.04H249.044V223.368H243.635C244.212 221.992 244.82 220.2 245.332 218.632L243.06 218.184ZM264.724 223.304H255.028C255.572 221.768 256.02 220.168 256.436 218.568L254.388 218.12C253.396 222.536 251.668 226.952 249.492 229.8C249.972 230.088 250.9 230.664 251.284 230.984C252.372 229.448 253.396 227.464 254.292 225.288H262.676C262.26 238.28 261.748 243.208 260.692 244.328C260.372 244.744 259.988 244.808 259.348 244.808C258.644 244.808 256.724 244.808 254.644 244.616C255.028 245.192 255.284 246.056 255.348 246.696C257.14 246.792 258.964 246.856 260.052 246.76C261.108 246.664 261.844 246.408 262.484 245.544C263.764 244.008 264.212 239.112 264.724 224.424V223.304ZM259.7 237.704C258.676 235.784 256.436 232.712 254.58 230.44L252.948 231.4C254.74 233.704 256.916 236.872 257.908 238.824L259.7 237.704ZM297.812 224.616V222.6H290.1C290.484 221.32 290.836 219.976 291.092 218.632L289.044 218.28C288.372 221.992 287.156 225.576 285.396 227.944C285.876 228.2 286.804 228.712 287.156 229.032C287.988 227.816 288.756 226.312 289.396 224.616H297.812ZM276.116 221.96C275.092 220.872 272.948 219.464 271.124 218.632L269.876 220.136C271.7 221.064 273.844 222.536 274.868 223.592L276.116 221.96ZM275.06 230.12C273.94 229.16 271.604 227.912 269.748 227.144L268.564 228.712C270.452 229.544 272.724 230.856 273.844 231.848L275.06 230.12ZM273.172 235.656C271.988 239.24 270.324 243.368 269.14 245.864L271.06 246.952C272.308 244.04 273.812 240.072 274.868 236.744L273.172 235.656ZM285.556 230.248H280.34C280.436 228.68 280.468 227.112 280.532 225.512H286.612V223.528H282.324V218.28H280.276V223.528H275.444V225.512H278.548C278.388 233.416 277.94 241.672 273.684 246.056C274.228 246.344 274.868 246.952 275.22 247.368C278.548 243.816 279.732 238.28 280.212 232.232H283.604C283.38 241.224 283.124 244.392 282.58 245.128C282.356 245.48 282.1 245.512 281.652 245.512C281.14 245.512 279.956 245.512 278.644 245.416C278.964 245.928 279.156 246.76 279.188 247.336C280.468 247.4 281.748 247.432 282.452 247.336C283.284 247.272 283.828 247.048 284.276 246.408C285.076 245.352 285.332 241.832 285.556 231.272V230.248ZM297.844 235.816H293.14V234.152C294.676 232.776 296.404 230.856 297.588 229.064L296.276 228.168L295.892 228.296H287.796V230.152H294.42C293.748 231.048 292.916 231.976 292.116 232.712H291.156V235.816H286.196V237.704H291.156V244.968C291.156 245.384 291.028 245.48 290.58 245.48C290.164 245.512 288.692 245.512 287.028 245.48C287.284 246.056 287.572 246.888 287.668 247.432C289.812 247.432 291.22 247.4 292.052 247.08C292.916 246.76 293.14 246.152 293.14 245V237.704H297.844V235.816ZM327.86 222.856C326.964 221.576 324.98 219.784 323.348 218.6L321.844 219.72C323.476 221.032 325.396 222.888 326.292 224.136L327.86 222.856ZM313.236 241.128C312.34 239.496 310.996 237.352 309.428 235.048C311.028 231.496 312.212 227.272 312.884 222.376L311.508 221.896L311.156 221.992H301.012V223.912H310.548C310.004 227.24 309.14 230.28 308.02 232.968C306.324 230.568 304.532 228.072 302.9 225.96L301.364 227.144C303.156 229.576 305.172 232.424 306.964 235.176C305.14 238.76 302.804 241.544 300.243 243.24C300.756 243.656 301.46 244.456 301.78 245C304.244 243.176 306.516 240.584 308.34 237.224C309.62 239.272 310.74 241.16 311.508 242.632L313.236 241.128ZM326.1 229.736C325.044 232.552 323.476 235.368 321.524 237.896C320.82 235.336 320.244 232.2 319.892 228.712L329.332 227.624L329.076 225.704L319.668 226.76C319.412 224.2 319.252 221.384 319.156 218.504H316.98C317.108 221.48 317.3 224.36 317.556 227.016L312.948 227.56L313.172 229.48L317.748 228.968C318.196 233.224 318.868 236.904 319.828 239.88C317.812 242.088 315.508 243.88 313.076 245.064C313.716 245.48 314.388 246.12 314.772 246.632C316.819 245.512 318.804 243.944 320.596 242.056C322.004 245.352 323.892 247.272 326.42 247.464C327.924 247.56 329.14 245.992 329.78 240.904C329.332 240.712 328.404 240.168 327.988 239.752C327.7 243.208 327.188 245 326.324 244.936C324.692 244.776 323.316 243.048 322.26 240.168C324.628 237.352 326.548 234.056 327.796 230.728L326.1 229.736ZM336.5 233.672C336.82 232.136 337.108 230.504 337.364 228.936H347.092V219.592H334.42V221.608H344.98V226.952H335.54C335.092 230.088 334.324 234.28 333.684 236.84L335.764 237.192C335.891 236.712 335.988 236.2 336.116 235.656H344.916C344.468 241.736 343.924 244.232 343.124 244.968C342.772 245.256 342.42 245.32 341.684 245.32C340.948 245.32 338.804 245.288 336.66 245.064C337.076 245.672 337.364 246.6 337.396 247.24C339.444 247.336 341.46 247.4 342.452 247.336C343.604 247.24 344.276 247.08 344.884 246.376C346.004 245.288 346.548 242.312 347.156 234.664C347.188 234.376 347.22 233.672 347.22 233.672H336.5ZM356.116 218.568V247.4H358.228V218.568H356.116ZM53.6 274.784V276.736H49.6V274.784H53.6ZM48.704 269.6C48.128 271.104 47.104 272.896 45.568 274.304C45.984 274.528 46.528 275.072 46.848 275.488C47.264 275.072 47.68 274.624 48.032 274.144V279.04H49.6V277.984H55.2V273.536H48.512C48.8 273.088 49.088 272.672 49.312 272.224H57.664C57.44 276.224 57.216 277.76 56.832 278.208C56.64 278.464 56.416 278.496 56 278.496C55.648 278.496 54.624 278.464 53.536 278.368C53.792 278.784 53.952 279.424 54.016 279.872C55.072 279.968 56.16 279.968 56.768 279.936C57.472 279.872 57.984 279.712 58.368 279.232C58.976 278.56 59.264 276.704 59.52 271.616C59.552 271.392 59.552 270.848 59.552 270.848H50.048C50.176 270.496 50.336 270.176 50.432 269.824H51.328V268.48H54.944V269.888H56.8V268.48H60.544V266.944H56.8V265.28H54.944V266.944H51.328V265.28H49.504V266.944H45.76V268.48H49.504V269.696L48.704 269.6ZM61.056 286.176H72.288V284.576H61.056V282.336C64.416 282.112 67.552 281.824 69.952 281.408L68.576 280.032C64.16 280.768 55.68 281.152 48.832 281.248C49.024 281.632 49.248 282.272 49.28 282.688C52.32 282.688 55.712 282.624 58.944 282.464V284.576H48V286.176H58.944V288.32H45.984V289.952H58.944V292.16C58.944 292.544 58.784 292.672 58.368 292.704C57.92 292.704 56.288 292.704 54.56 292.672C54.848 293.184 55.168 293.888 55.296 294.432C57.568 294.432 59.008 294.4 59.904 294.144C60.768 293.824 61.056 293.344 61.056 292.192V289.952H74.112V288.32H61.056V286.176ZM70.208 270.08C69.504 271.808 68.416 273.216 67.008 274.368C65.728 273.152 64.736 271.712 64.032 270.08H70.208ZM74.144 270.08V268.416H64.832C65.216 267.52 65.568 266.56 65.856 265.6L64.032 265.184C63.2 268.192 61.664 271.072 59.68 272.896C60.096 273.216 60.864 273.824 61.184 274.144C61.856 273.44 62.464 272.64 63.04 271.744C63.712 273.088 64.608 274.336 65.6 275.424C63.84 276.544 61.728 277.344 59.36 277.952C59.744 278.336 60.288 279.136 60.512 279.552C62.912 278.816 65.056 277.92 66.912 276.672C68.704 278.208 70.848 279.328 73.312 280.032C73.568 279.488 74.112 278.784 74.528 278.368C72.192 277.792 70.112 276.864 68.384 275.584C70.08 274.144 71.424 272.32 72.288 270.08H74.144ZM86.784 292.064C84.736 289.664 81.888 286.784 79.584 284.928L77.728 286.592C80 288.416 82.752 291.136 84.832 293.696L86.784 292.064ZM111.264 292H113.76V279.168C113.76 276.736 113.568 274.368 113.44 272.032H113.6L116.16 276.832L124.96 292H127.712V268.576H125.184V281.248C125.184 283.648 125.376 286.208 125.536 288.544H125.376L122.848 283.744L113.984 268.576H111.264V292ZM134.233 292H136.889V281.312H145.913V279.072H136.889V270.816H147.545V268.576H134.233V292ZM156.598 292H159.286V270.816H166.454V268.576H149.462V270.816H156.598V292ZM178.222 292.064C176.174 289.664 173.326 286.784 171.022 284.928L169.166 286.592C171.438 288.416 174.19 291.136 176.27 293.696L178.222 292.064ZM229.742 290.56H204.718V269.312H229.038V267.296H202.606V294.464H204.718V292.544H229.742V290.56ZM225.774 286.144C224.142 284.16 221.614 281.824 218.734 279.488C220.846 276.96 222.702 274.176 224.27 271.232L222.254 270.528C220.846 273.216 219.086 275.84 217.134 278.24C214.67 276.32 212.078 274.496 209.646 272.992L208.142 274.304C210.638 275.904 213.294 277.824 215.79 279.808C213.102 282.784 210.03 285.408 206.798 287.36C207.31 287.744 208.142 288.544 208.494 288.992C211.63 286.88 214.638 284.192 217.39 281.12C220.142 283.424 222.542 285.792 224.078 287.712L225.774 286.144ZM242.798 282.816L239.15 284.352V274.976H242.766V272.96H239.15V265.632H237.134V272.96H233.198V274.976H237.134V285.184C235.47 285.888 233.934 286.464 232.718 286.944L233.549 289.056C236.334 287.84 239.885 286.24 243.246 284.672L242.798 282.816ZM252.334 272.736H257.454V280H252.206C252.302 278.816 252.334 277.6 252.334 276.352V272.736ZM261.742 282.016V280H259.47V270.72H252.334V265.6H250.286V270.72H244.302V272.736H250.286V276.352C250.286 277.6 250.253 278.816 250.126 280H243.31V282.016H249.838C249.006 286.144 246.734 289.984 240.845 292.864C241.326 293.248 241.998 293.984 242.286 294.464C248.43 291.392 250.894 287.296 251.79 282.816C253.422 288.256 256.334 292.352 260.814 294.496C261.166 293.888 261.806 293.056 262.286 292.608C257.934 290.816 255.022 287.008 253.518 282.016H261.742ZM286.222 290.336H288.238V284.768H293.774V282.848H288.238V278.304H293.006V276.48H288.238V272.576H286.222V276.48H282.606C283.534 274.752 284.398 272.736 285.198 270.56H293.614V268.64H285.87C286.19 267.648 286.51 266.624 286.798 265.632L284.654 265.184C284.43 266.304 284.11 267.52 283.79 268.64H279.502V270.56H283.15C282.478 272.544 281.838 274.112 281.517 274.688C281.006 275.84 280.558 276.672 280.046 276.8C280.333 277.344 280.622 278.304 280.75 278.752C281.006 278.496 281.934 278.304 283.182 278.304H286.222V282.848H279.47V284.768H286.222V290.336ZM278.798 272.032C278.286 270.56 277.134 268.288 276.078 266.592L274.35 267.232C275.374 268.928 276.494 271.264 276.974 272.768L278.798 272.032ZM273.646 270.912V269.024H268.878C269.262 268 269.55 266.912 269.838 265.856L267.982 265.376C267.342 268.288 266.19 271.232 264.686 273.152C265.038 273.568 265.646 274.56 265.806 274.976C266.67 273.856 267.438 272.448 268.11 270.912H273.646ZM270.51 289.952V282.976H273.87V281.12H270.51V276.48H272.91V274.624H266.51V276.48H268.59V281.12H265.166V282.976H268.59V289.536C268.59 291.072 267.598 292.128 267.054 292.512C267.406 292.832 267.95 293.6 268.174 294.016V293.888L268.206 294.016C268.654 293.44 269.39 292.864 274.126 289.632C273.934 289.28 273.614 288.512 273.486 288L270.51 289.952ZM278.51 276.352H274.19V278.304H276.558V289.056C275.406 289.568 274.126 290.752 272.878 292.16L274.286 294.08C275.534 292.32 276.814 290.656 277.678 290.656C278.318 290.656 279.214 291.456 280.302 292.224C281.998 293.312 283.95 293.728 286.67 293.728C288.654 293.728 292.11 293.632 293.774 293.536C293.806 292.928 294.094 291.872 294.318 291.296C292.174 291.552 288.846 291.68 286.734 291.68C284.174 291.68 282.286 291.392 280.718 290.4C279.726 289.792 279.118 289.248 278.51 288.96V276.352ZM306.446 270.4C305.358 269.248 303.246 267.296 301.646 265.92L300.206 267.232C301.774 268.672 303.885 270.72 304.942 271.936L306.446 270.4ZM304.622 288.576V275.296H297.07V277.344H302.574V288.512C302.574 289.984 301.486 291.008 300.846 291.456C301.23 291.808 301.806 292.544 302.03 293.024C302.478 292.416 303.31 291.808 309.358 287.552C309.198 287.168 308.91 286.368 308.75 285.824L304.622 288.576ZM315.438 265.28C315.374 276.16 315.502 287.424 307.47 292.992C308.014 293.344 308.718 293.952 309.102 294.464C313.454 291.296 315.566 286.56 316.558 281.088C317.774 285.632 319.982 291.296 324.654 294.4C325.038 293.856 325.678 293.248 326.222 292.832C319.342 288.512 317.806 278.336 317.294 275.264C317.518 272 317.55 268.64 317.55 265.28H315.438ZM337.294 270.816C336.27 269.536 334.062 267.552 332.302 266.176L330.894 267.456C332.622 268.896 334.798 270.944 335.822 272.288L337.294 270.816ZM335.854 288.768V275.296H329.198V277.344H333.806V288.736C333.806 290.368 332.654 291.52 332.046 292C332.43 292.32 333.102 293.056 333.39 293.472C333.838 292.864 334.67 292.224 340.014 288.096C339.758 287.68 339.406 286.848 339.182 286.272L335.854 288.768ZM350.318 291.168V280.352H356.782V278.336H350.318V269.824H357.358V267.808H339.854V269.824H348.142V291.168H343.597V275.68H341.518V291.168H338.702V293.152H358.062V291.168H350.318ZM54.208 315.736C56.256 315.288 58.144 314.776 59.648 314.232L58.176 312.568C55.424 313.72 50.304 314.648 46.08 315.224C46.304 315.704 46.56 316.408 46.656 316.92C48.384 316.696 50.24 316.44 52.064 316.152V321.656H45.728V323.64H51.552C50.08 327.736 47.392 332.248 44.96 334.712C45.312 335.224 45.888 336.088 46.144 336.664C48.224 334.424 50.464 330.616 52.064 326.84V341.336H54.208V326.968C55.648 328.76 57.568 331.352 58.304 332.568L59.616 330.84C58.848 329.816 55.392 325.784 54.208 324.504V323.64H59.936V321.656H54.208V315.736ZM63.136 335.32V317.272H70.592V335.32H63.136ZM61.056 315.224V340.024H63.136V337.368H70.592V339.8H72.736V315.224H61.056ZM76.544 339H79.328L82.88 332.472C83.488 331.32 84.096 330.136 84.8 328.696H84.928C85.696 330.136 86.368 331.32 86.976 332.472L90.56 339H93.472L86.592 327.032L93.024 315.576H90.272L86.944 321.784C86.368 322.84 85.92 323.8 85.28 325.144H85.12C84.384 323.8 83.872 322.84 83.264 321.784L79.936 315.576H76.992L83.424 326.904L76.544 339ZM99.9513 317.72H104.047C107.823 317.72 109.903 318.872 109.903 322.072C109.903 325.208 107.823 326.712 104.047 326.712H99.9513V317.72ZM113.167 339L107.119 328.632C110.415 327.896 112.559 325.752 112.559 322.072C112.559 317.272 109.231 315.576 104.463 315.576H97.2953V339H99.9513V328.888H104.335L110.191 339H113.167ZM126.126 325.848C124.878 326.264 123.63 326.68 122.382 327.064V320.76H126.318V318.776H122.382V312.28H120.334V318.776H115.63V320.76H120.334V327.736C118.446 328.312 116.686 328.824 115.31 329.24L115.982 331.256C117.294 330.872 118.766 330.36 120.334 329.848V338.616C120.334 339.064 120.142 339.224 119.694 339.224C119.31 339.224 117.902 339.256 116.366 339.192C116.622 339.768 116.942 340.632 117.006 341.176C119.214 341.176 120.494 341.144 121.294 340.76C122.062 340.44 122.382 339.896 122.382 338.584V329.176C123.758 328.728 125.134 328.216 126.478 327.768L126.126 325.848ZM141.102 327.448V337.56H131.438V327.448H141.102ZM144.558 316.568V314.52H126.158V316.568H132.462C131.054 322.072 128.366 328.184 124.238 331.96C124.622 332.344 125.294 333.08 125.646 333.56C127.054 332.248 128.334 330.68 129.422 328.952V341.432H131.438V339.576H141.102V341.272H143.182V325.432H131.406C132.846 322.584 133.902 319.512 134.734 316.568H144.558ZM160.91 326.392H167.598V329.848H160.91V326.392ZM160.91 321.496H167.598V324.536H160.91V321.496ZM152.846 315.704H172.334V319.608H152.846V315.704ZM172.974 331.992C171.726 333.016 169.678 334.392 167.982 335.384C166.894 334.296 165.966 333.08 165.294 331.704H176.398V329.848H169.582V326.392H175.118V324.536H169.582V321.496H174.478V313.816H150.734V323.128C150.734 328.248 150.446 335.288 147.246 340.344C147.758 340.536 148.718 341.08 149.102 341.4C152.398 336.216 152.846 328.536 152.846 323.128V321.496H158.926V324.536H153.998V326.392H158.926V329.848H153.006V331.704H157.166V338.456C155.79 338.648 154.51 338.84 153.454 339L153.774 340.984C157.102 340.408 161.806 339.608 166.254 338.84L166.158 336.984C163.758 337.4 161.358 337.784 159.15 338.136V331.704H163.31C165.486 336.664 169.646 340.024 175.406 341.464C175.662 340.92 176.238 340.152 176.718 339.704C173.806 339.128 171.31 338.008 169.294 336.504C170.99 335.576 173.006 334.36 174.574 333.144L172.974 331.992ZM193.966 315.736H203.918V330.776H206.03V313.848H191.95V330.776H193.966V315.736ZM190.638 332.728C189.23 333.176 187.79 333.592 186.414 333.976V325.688H189.774V323.704H186.414V316.504H190.414V314.488H180.046V316.504H184.334V323.704H180.494V325.688H184.334V334.616C182.574 335.128 180.974 335.544 179.694 335.896L180.174 337.944C183.15 337.016 187.118 335.832 190.894 334.68L190.638 332.728ZM202.414 338.904C201.486 338.904 201.198 338.68 201.198 337.784V330.168H199.246C199.662 328.376 199.79 326.616 199.79 324.984V318.584H197.806V324.92C197.806 329.912 196.782 335.864 188.782 339.96C189.23 340.28 189.87 341.08 190.094 341.496C195.79 338.584 198.254 334.456 199.214 330.456V337.976C199.214 339.992 200.046 340.536 202.158 340.536H205.166C207.822 340.536 208.174 339.288 208.462 334.264C207.918 334.136 207.246 333.88 206.702 333.464C206.542 338.072 206.382 338.904 205.198 338.904H202.414ZM215.246 318.04H236.91V322.328H239.118V316.024H227.182V312.248H224.942V316.024H213.134V322.328H215.246V318.04ZM223.95 323.384C222.926 322.232 220.91 320.76 219.182 319.832L217.902 321.176C219.63 322.2 221.646 323.768 222.574 324.888L223.95 323.384ZM214.734 326.104C216.526 327.16 218.702 328.76 219.726 329.912L221.006 328.312C219.982 327.192 217.774 325.688 215.982 324.696L214.734 326.104ZM239.918 330.904H227.246C228.142 327.832 228.398 324.12 228.526 319.672H226.318C226.158 324.248 225.998 327.928 224.942 330.904H212.462V332.76H224.11C222.35 335.992 219.086 338.168 212.782 339.448C213.23 339.896 213.806 340.728 214.03 341.304C220.59 339.8 224.078 337.368 226.03 333.816C230.542 336.088 234.862 338.904 237.55 341.336L238.958 339.768C236.366 337.528 232.238 334.904 228.014 332.76H239.918V330.904ZM249.614 316.824C250.222 318.072 250.798 319.544 250.99 320.504L252.878 319.832C252.686 319.032 252.238 317.88 251.694 316.824H257.742V315H249.134C249.518 314.232 249.87 313.432 250.158 312.632L248.174 312.12C247.086 314.968 245.326 317.752 243.342 319.64C243.854 319.896 244.718 320.504 245.134 320.856C246.19 319.736 247.214 318.36 248.142 316.824H249.614ZM249.39 334.776C251.502 336.152 253.806 338.2 254.862 339.704L256.494 338.36C255.406 336.856 253.006 334.872 250.926 333.592L249.39 334.776ZM272.558 328.536V326.68H259.15V323.608H269.55V321.784H259.15V319.48H258.478C259.214 318.712 259.886 317.784 260.526 316.824H262.83C263.79 318.072 264.718 319.64 265.134 320.696L266.958 319.896C266.606 319.032 265.902 317.848 265.102 316.824H272.206V315H261.55C261.934 314.2 262.286 313.432 262.574 312.632L260.558 312.12C259.662 314.84 257.934 317.4 255.918 319.096C256.174 319.256 256.59 319.48 256.974 319.768V321.784H246.862V323.608H256.974V326.68H243.726V328.536H263.502V331.512H244.75V333.4H263.502V338.776C263.502 339.224 263.342 339.384 262.798 339.384C262.19 339.448 260.334 339.448 258.062 339.384C258.382 339.96 258.734 340.76 258.862 341.4C261.518 341.4 263.278 341.368 264.334 341.048C265.358 340.696 265.646 340.152 265.646 338.808V333.4H271.726V331.512H265.646V328.536H272.558ZM285.966 328.28L285.742 326.328L282.094 327.384V320.76H285.71V318.776H282.094V312.28H279.982V318.776H275.822V320.76H279.982V327.992C278.254 328.472 276.686 328.888 275.406 329.208L276.046 331.288L279.982 330.104V338.776C279.982 339.256 279.822 339.416 279.374 339.416C278.99 339.448 277.582 339.448 276.046 339.416C276.302 339.992 276.622 340.824 276.718 341.368C278.894 341.368 280.174 341.304 280.974 340.984C281.742 340.632 282.094 340.056 282.094 338.776V329.464L285.966 328.28ZM300.238 326.264C299.022 329.304 297.102 331.896 294.798 333.944C292.686 331.832 291.022 329.208 289.934 326.264H300.238ZM301.55 324.216L301.166 324.312H295.854V319.352H303.63V317.368H295.854V312.248H293.774V317.368H286.126V319.352H293.774V324.312H286.83V326.264H287.79C289.038 329.784 290.862 332.792 293.166 335.288C290.51 337.24 287.438 338.648 284.302 339.512C284.718 339.96 285.262 340.824 285.518 341.432C288.782 340.408 291.95 338.872 294.734 336.76C297.134 338.84 300.014 340.44 303.374 341.464C303.694 340.888 304.302 340.056 304.75 339.608C301.486 338.744 298.67 337.304 296.334 335.352C299.246 332.664 301.55 329.208 302.894 324.824L301.55 324.216ZM332.878 317.464C331.598 316.184 329.006 314.232 327.022 312.888L325.486 314.2C327.502 315.608 330.03 317.656 331.278 318.968L332.878 317.464ZM335.63 322.456V320.376H323.278V312.312H320.974V320.376H308.302V322.456H320.398C317.55 327.928 312.398 333.304 307.406 335.832C307.886 336.28 308.59 337.112 309.006 337.656C313.422 335.128 317.87 330.616 320.974 325.528V341.432H323.278V324.664C326.478 329.592 331.054 334.616 334.99 337.4C335.374 336.824 336.142 335.992 336.654 335.608C332.334 332.856 327.182 327.48 324.142 322.456H335.63ZM342.926 342.232C346.158 341.08 348.302 338.52 348.302 335.064C348.302 332.92 347.406 331.512 345.71 331.512C344.494 331.512 343.406 332.28 343.406 333.72C343.406 335.16 344.43 335.896 345.678 335.896C345.87 335.896 346.094 335.864 346.286 335.832C346.126 338.104 344.75 339.64 342.254 340.728L342.926 342.232ZM55.712 364.976V363.024H50.272C50.752 362.032 51.136 360.944 51.488 359.92L49.568 359.376C48.64 362.32 47.072 365.264 45.248 367.12C45.632 367.6 46.208 368.656 46.4 369.104C47.456 367.984 48.448 366.544 49.28 364.976H55.712ZM51.84 383.856V377.168H55.808V375.216H51.84V370.576H55.264V368.624H46.912V370.576H49.888V375.216H45.984V377.168H49.888V383.952C49.888 385.328 49.056 386.128 48.544 386.48C48.896 386.928 49.376 387.76 49.568 388.272C50.048 387.664 50.816 387.056 55.872 383.056C55.712 382.64 55.424 381.84 55.264 381.296L51.84 383.856ZM74.528 373.584V371.728H63.904C64.128 370.832 64.32 369.904 64.512 368.944H72.832V367.184H64.8C64.928 366.384 65.056 365.52 65.184 364.656H73.76V362.832H65.408C65.568 361.712 65.664 360.56 65.792 359.376L63.712 359.248C63.616 360.464 63.488 361.68 63.36 362.832H56.64V364.656H63.136C63.04 365.52 62.912 366.384 62.752 367.184H57.408V368.944H62.432C62.272 369.904 62.08 370.832 61.824 371.728H55.744V373.584H61.312C59.872 378.416 57.664 382.352 54.272 385.2C54.784 385.52 55.712 386.256 56 386.64C58.464 384.368 60.32 381.648 61.728 378.448H69.44V386.064C69.44 386.448 69.312 386.544 68.864 386.544C68.448 386.576 67.008 386.608 65.312 386.544C65.632 387.088 65.92 387.856 65.984 388.4C68.16 388.4 69.536 388.368 70.4 388.048C71.232 387.76 71.456 387.216 71.456 386.064V378.448H73.984V376.592H71.456V374.32H69.44V376.592H62.432C62.816 375.632 63.136 374.608 63.424 373.584H74.528ZM67.072 383.856C66.432 382.576 64.896 380.72 63.52 379.312L61.984 380.304C63.328 381.712 64.832 383.664 65.472 384.944L67.072 383.856ZM94.944 365.2V369.552H85.792V371.408H106.24V369.552H97.056V365.2H104.832V363.344H97.056V359.28H94.944V363.344H91.008C91.488 362.32 91.936 361.264 92.32 360.176L90.336 359.728C89.344 362.736 87.648 365.68 85.632 367.664C86.176 367.856 87.04 368.368 87.456 368.688C88.352 367.728 89.216 366.512 89.984 365.2H94.944ZM90.784 375.824H101.696V381.232H90.784V375.824ZM103.84 382.992V374.032H88.704V382.992H103.84ZM85.248 365.008C84.16 363.472 81.76 361.424 79.648 360.048L78.08 361.328C80.192 362.736 82.56 364.848 83.584 366.416L85.248 365.008ZM84.32 371.824H77.696V373.84H82.272V382.16C80.672 383.536 78.816 385.008 77.312 386L78.464 388.112C80.192 386.736 81.824 385.328 83.36 383.952C85.408 386.48 88.32 387.632 92.544 387.792C95.968 387.92 102.592 387.856 106.016 387.696C106.08 387.056 106.464 386.064 106.72 385.552C103.04 385.808 95.904 385.904 92.512 385.744C88.736 385.616 85.888 384.496 84.32 382.064V371.824ZM127.936 385.072H130.112V379.024H137.984V377.008H130.112V372.368H136.448V370.384H130.112V366.352H127.936V370.384H122.432C123.424 368.656 124.384 366.64 125.312 364.496H137.344V362.608H126.08C126.432 361.712 126.784 360.784 127.104 359.888L124.864 359.28C124.544 360.368 124.16 361.52 123.776 362.608H118.368V364.496H123.04C122.24 366.48 121.44 368.08 121.088 368.656C120.448 369.808 119.904 370.64 119.392 370.768C119.616 371.344 119.968 372.368 120.064 372.848C120.352 372.56 121.376 372.368 122.912 372.368H127.936V377.008H118.144V379.024H127.936V385.072ZM117.024 365.296C116.128 363.76 114.112 361.392 112.416 359.664L110.816 360.688C112.448 362.48 114.432 364.976 115.296 366.544L117.024 365.296ZM115.872 370.096H109.536V372.08H113.824V382.352C112.448 382.864 110.848 384.4 109.184 386.416L110.752 388.464C112.256 386.16 113.696 384.176 114.72 384.176C115.424 384.176 116.512 385.328 117.824 386.224C120.064 387.696 122.752 388.048 126.912 388.048C130.112 388.048 136.096 387.856 138.336 387.696C138.368 387.024 138.72 385.904 138.976 385.296C135.808 385.648 131.008 385.936 127.008 385.936C123.232 385.936 120.512 385.712 118.368 384.304C117.216 383.6 116.512 382.896 115.872 382.512V370.096ZM164.576 364.592C164.16 366.224 163.328 368.528 162.688 370.032L163.808 370.224H157.344L158.336 369.968C158.24 368.592 157.6 366.32 156.864 364.592H164.576ZM164.416 377.232C163.84 379.44 162.912 381.2 161.472 382.544C159.712 381.84 157.92 381.2 156.224 380.72C156.8 379.632 157.376 378.448 157.952 377.232H164.416ZM170.56 372.08V370.224H164.608C165.248 368.784 166.048 366.608 166.688 364.752L165.536 364.592H169.6V362.736H161.76V359.28H159.68V362.736H152.032V364.592H156.704L155.072 364.912C155.712 366.576 156.256 368.784 156.416 370.224H150.688V372.08H158.08C157.632 373.136 157.12 374.256 156.608 375.408H150.944L151.456 375.248L151.2 373.328L148 374.288V367.728H151.2V365.776H148V359.28H145.952V365.776H141.536V367.728H145.952V374.896C144.064 375.44 142.368 375.952 141.024 376.304L141.536 378.384L145.952 377.008V385.776C145.952 386.256 145.792 386.384 145.376 386.384C144.96 386.416 143.648 386.416 142.176 386.352C142.464 386.928 142.752 387.856 142.816 388.368C144.896 388.4 146.144 388.336 146.944 388.016C147.712 387.632 148 387.024 148 385.776V376.336L150.848 375.44V377.232H155.744C154.816 379.216 153.856 381.136 153.056 382.576L154.912 383.216L155.424 382.288C156.832 382.736 158.304 383.28 159.744 383.888C157.504 385.296 154.368 386.128 150.112 386.576C150.464 387.024 150.816 387.792 150.976 388.368C155.84 387.728 159.36 386.608 161.856 384.784C164.512 386 166.88 387.28 168.448 388.432L169.76 386.8C168.224 385.712 165.952 384.496 163.456 383.408C164.992 381.808 165.952 379.76 166.56 377.232H170.4V375.408H158.816C159.36 374.256 159.872 373.136 160.352 372.08H170.56ZM193.28 376.592H191.264V385.872H187.36V376.592H185.408V385.872H177.856V387.728H201.632V385.872H193.28V376.592ZM179.68 378.672C180.768 380.464 181.856 382.896 182.272 384.4L184.096 383.664C183.68 382.16 182.496 379.824 181.408 378.064L179.68 378.672ZM197.6 377.84C196.832 379.6 195.392 382.16 194.272 383.76L195.776 384.4C196.96 382.896 198.432 380.528 199.68 378.544L197.6 377.84ZM190.912 373.776C188.896 373.776 188.608 373.584 188.608 372.752V371.6L196.608 370.864L196.448 369.296L188.608 370V367.664H199.104C198.784 368.656 198.432 369.616 198.112 370.352L199.936 370.96C200.576 369.744 201.28 367.856 201.792 366.192L200.256 365.744L199.84 365.84H188.704V363.568H199.712V361.808H188.704V359.28H186.592V365.84H176.256V373.488C176.256 377.552 176.032 383.216 173.504 387.248C174.016 387.44 174.88 388.048 175.296 388.368C177.888 384.144 178.336 377.872 178.336 373.488V367.664H186.592V370.192L180.032 370.8L180.192 372.4L186.592 371.792V372.752C186.592 374.96 187.456 375.44 190.848 375.44H198.336C200.8 375.44 201.44 374.8 201.728 372.208C201.184 372.08 200.352 371.856 199.904 371.536C199.776 373.456 199.552 373.776 198.176 373.776H190.912ZM226.752 371.504C226.24 369.616 224.672 366.768 223.136 364.592L221.44 365.328C222.944 367.504 224.448 370.448 224.928 372.336L226.752 371.504ZM215.776 373.136L212.16 374.224V367.792H215.648V365.776H212.16V359.28H210.112V365.776H205.568V367.792H210.112V374.8C208.192 375.408 206.4 375.92 205.024 376.272L205.696 378.32C207.008 377.904 208.512 377.456 210.112 376.976V385.872C210.112 386.32 209.92 386.448 209.504 386.48C209.12 386.48 207.744 386.48 206.272 386.448C206.56 387.024 206.88 387.856 206.944 388.368C209.056 388.4 210.272 388.336 211.072 388.016C211.84 387.664 212.16 387.088 212.16 385.84V376.336C213.44 375.952 214.784 375.504 216.064 375.088L215.776 373.136ZM224.288 377.136C222.656 377.904 221.024 378.672 219.456 379.408V360.784H217.408V380.336C216.128 380.944 214.944 381.424 213.984 381.84L214.944 383.92C217.728 382.544 221.376 380.72 224.8 378.992L224.288 377.136ZM234.656 387.184C233.696 385.136 231.552 382.064 229.568 379.568C231.776 375.056 232.384 368.944 232.544 360.528H230.336C230.176 375.632 228.608 383.056 217.44 386.608C217.888 387.088 218.56 388.048 218.784 388.528C223.36 386.832 226.464 384.592 228.48 381.52C230.24 383.888 231.968 386.608 232.8 388.464L234.656 387.184ZM251.872 362.736H261.824V377.776H263.936V360.848H249.856V377.776H251.872V362.736ZM248.544 379.728C247.136 380.176 245.696 380.592 244.32 380.976V372.688H247.68V370.704H244.32V363.504H248.32V361.488H237.952V363.504H242.24V370.704H238.4V372.688H242.24V381.616C240.48 382.128 238.88 382.544 237.6 382.896L238.08 384.944C241.056 384.016 245.024 382.832 248.8 381.68L248.544 379.728ZM260.32 385.904C259.392 385.904 259.104 385.68 259.104 384.784V377.168H257.152C257.568 375.376 257.696 373.616 257.696 371.984V365.584H255.712V371.92C255.712 376.912 254.688 382.864 246.688 386.96C247.136 387.28 247.776 388.08 248 388.496C253.696 385.584 256.16 381.456 257.12 377.456V384.976C257.12 386.992 257.952 387.536 260.064 387.536H263.072C265.728 387.536 266.08 386.288 266.368 381.264C265.824 381.136 265.152 380.88 264.608 380.464C264.448 385.072 264.288 385.904 263.104 385.904H260.32ZM273.152 365.04H294.816V369.328H297.024V363.024H285.088V359.248H282.848V363.024H271.04V369.328H273.152V365.04ZM281.856 370.384C280.832 369.232 278.816 367.76 277.088 366.832L275.808 368.176C277.536 369.2 279.552 370.768 280.48 371.888L281.856 370.384ZM272.64 373.104C274.432 374.16 276.608 375.76 277.632 376.912L278.912 375.312C277.888 374.192 275.68 372.688 273.888 371.696L272.64 373.104ZM297.824 377.904H285.152C286.048 374.832 286.304 371.12 286.432 366.672H284.224C284.064 371.248 283.904 374.928 282.848 377.904H270.368V379.76H282.016C280.256 382.992 276.992 385.168 270.688 386.448C271.136 386.896 271.712 387.728 271.936 388.304C278.496 386.8 281.984 384.368 283.936 380.816C288.448 383.088 292.768 385.904 295.456 388.336L296.864 386.768C294.272 384.528 290.144 381.904 285.92 379.76H297.824V377.904ZM311.904 373.264H304.896V366.288H311.904V373.264ZM304.896 383.12V375.184H311.904V383.12H304.896ZM307.872 359.184C307.616 360.688 307.04 362.864 306.496 364.368H302.944V387.6H304.896V385.04H313.856V364.368H308.448C309.024 362.992 309.632 361.2 310.144 359.632L307.872 359.184ZM329.536 364.304H319.84C320.384 362.768 320.832 361.168 321.248 359.568L319.2 359.12C318.208 363.536 316.48 367.952 314.304 370.8C314.784 371.088 315.712 371.664 316.096 371.984C317.184 370.448 318.208 368.464 319.104 366.288H327.488C327.072 379.28 326.56 384.208 325.504 385.328C325.184 385.744 324.8 385.808 324.16 385.808C323.456 385.808 321.536 385.808 319.456 385.616C319.84 386.192 320.096 387.056 320.16 387.696C321.952 387.792 323.776 387.856 324.864 387.76C325.92 387.664 326.656 387.408 327.296 386.544C328.576 385.008 329.024 380.112 329.536 365.424V364.304ZM324.512 378.704C323.488 376.784 321.248 373.712 319.392 371.44L317.76 372.4C319.552 374.704 321.728 377.872 322.72 379.824L324.512 378.704ZM346.112 359.92C345.568 361.2 344.48 363.056 343.68 364.208L345.12 364.912C345.984 363.856 347.04 362.192 347.968 360.752L346.112 359.92ZM338.56 364.208C338.24 363.056 337.376 361.36 336.448 360.048L334.816 360.752C335.712 362.064 336.576 363.824 336.864 364.944L338.56 364.208ZM352.512 367.12H358.4C357.792 371.312 356.864 374.832 355.392 377.808C354.048 374.736 353.088 371.152 352.448 367.312L352.512 367.12ZM344 378.096C343.584 379.92 342.88 381.424 341.856 382.64C340.576 382 339.2 381.392 337.856 380.848C338.336 379.984 338.816 379.056 339.296 378.096H344ZM362.56 367.12V365.136H353.088C353.6 363.376 354.016 361.488 354.336 359.568L352.192 359.248C351.264 364.88 349.6 370.224 346.912 373.616C347.392 373.936 348.288 374.64 348.64 375.024C349.568 373.776 350.4 372.304 351.136 370.672C351.872 374.128 352.832 377.296 354.144 380.016C352.512 382.512 350.336 384.496 347.52 386.032C346.496 385.232 345.184 384.4 343.68 383.6C344.864 382.128 345.632 380.304 346.08 378.096H348.96V376.304H340.192C340.608 375.472 340.992 374.672 341.344 373.904L341.024 373.84H342.24V368.944C343.808 370.064 345.952 371.696 346.784 372.464L347.968 370.928C347.104 370.288 343.616 368.048 342.24 367.248V366.992H348.8V365.2H342.24V359.248H340.256V365.2H333.568V366.992H339.616C338.08 369.136 335.616 371.216 333.28 372.272C333.696 372.656 334.208 373.36 334.464 373.872C336.512 372.752 338.656 370.896 340.256 368.912V373.68L339.36 373.488C338.976 374.352 338.496 375.312 338.016 376.304H333.408V378.096H337.12C336.256 379.792 335.392 381.424 334.656 382.672L336.48 383.376L337.024 382.448C338.176 382.928 339.296 383.44 340.416 384.016C338.72 385.264 336.48 386.064 333.472 386.608C333.888 387.056 334.304 387.824 334.464 388.4C337.856 387.664 340.416 386.576 342.272 385.008C343.776 385.872 345.12 386.768 346.112 387.568L346.72 386.928C347.104 387.408 347.52 388.112 347.712 388.464C350.912 386.832 353.376 384.72 355.264 382.128C356.864 384.784 358.848 386.928 361.344 388.4C361.664 387.824 362.368 387.024 362.88 386.576C360.256 385.2 358.176 382.96 356.576 380.112C358.56 376.656 359.808 372.368 360.608 367.12H362.56ZM48.8 411.784H71.104V417.128H73.28V409.8H61.056V406.184H58.88V409.8H46.72V417.128H48.8V411.784ZM73.696 423.464H61.152V422.312C63.872 420.84 66.816 418.568 68.768 416.392L67.36 415.336L66.912 415.464H51.52V417.416H64.896C63.552 418.696 61.824 420.008 60.128 421H58.944V423.464H46.4V425.48H58.944V432.68C58.944 433.128 58.784 433.288 58.208 433.288C57.632 433.32 55.648 433.32 53.44 433.256C53.824 433.832 54.272 434.76 54.432 435.336C57.088 435.336 58.72 435.336 59.744 435.016C60.8 434.664 61.152 434.024 61.152 432.712V425.48H73.696V423.464ZM84.352 410.376C83.328 409.288 81.312 407.816 79.68 406.824L78.304 408.136C79.968 409.16 81.952 410.792 82.944 411.816L84.352 410.376ZM83.264 418.664C82.24 417.704 80.128 416.328 78.496 415.432L77.216 416.84C78.912 417.768 80.96 419.24 81.952 420.232L83.264 418.664ZM79.84 435.112C81.152 432.104 82.72 427.976 83.808 424.488L82.112 423.4C80.928 427.08 79.168 431.432 77.952 434.024L79.84 435.112ZM87.328 420.424H93.248V423.176H87.328V420.424ZM87.328 416.2H93.248V418.888H87.328V416.2ZM95.968 429.512V427.592H91.296V424.776H95.072V414.6H91.296V411.816H95.84V409.928H91.296V406.312H89.344V409.928H84.864V411.816H89.344V414.6H85.568V424.776H89.344V427.592H84.256V429.512H89.344V435.432H91.296V429.512H95.968ZM99.232 422.568C99.264 421.736 99.264 420.904 99.264 420.168V416.904H103.68V422.568H99.232ZM103.68 409.416V414.984H99.264V409.416H103.68ZM105.6 407.496H97.344V420.168C97.344 424.68 97.056 430.376 94.08 434.312C94.528 434.504 95.328 435.112 95.68 435.464C97.952 432.488 98.784 428.36 99.104 424.52H103.68V432.68C103.68 433.16 103.52 433.288 103.104 433.32C102.72 433.32 101.344 433.352 99.808 433.288C100.064 433.864 100.32 434.792 100.416 435.368C102.496 435.368 103.776 435.304 104.608 434.952C105.344 434.6 105.6 433.928 105.6 432.712V407.496ZM118.688 419.912C123.008 419.72 129.152 419.432 135.04 419.112C135.712 419.912 136.256 420.68 136.64 421.352L138.4 420.296C137.248 418.376 134.624 415.592 132.352 413.672L130.688 414.6C131.648 415.432 132.64 416.392 133.536 417.352C130.368 417.48 127.2 417.608 124.352 417.704C125.344 416.136 126.4 414.184 127.296 412.424H138.304V410.472H128.736V406.28H126.592V410.472H118.048V412.424H124.896C124.16 414.152 123.136 416.232 122.144 417.8C120.8 417.832 119.552 417.864 118.464 417.896L118.688 419.912ZM117.92 410.024C116.704 408.872 114.208 407.432 112.224 406.568L111.008 408.104C113.056 409.032 115.488 410.568 116.704 411.72L117.92 410.024ZM116.384 418.344C115.104 417.288 112.544 415.912 110.528 415.112L109.376 416.712C111.424 417.608 113.92 419.048 115.2 420.104L116.384 418.344ZM115.968 423.24C114.24 426.856 111.936 431.112 110.304 433.576L112.16 434.952C113.856 431.976 116 427.944 117.568 424.552L115.968 423.24ZM120.96 424.584C120.96 427.592 120.544 431.24 116.608 433.96C117.088 434.28 117.792 434.92 118.144 435.368C122.4 432.264 122.912 428.2 122.912 424.648V421.256H120.96V424.584ZM126.592 434.024H128.512V421.416H126.592V434.024ZM135.04 433.192C134.816 433.192 134.592 433.16 134.464 433.064C134.304 432.904 134.272 432.552 134.272 431.912V421.256H132.32V431.656C132.32 433.512 132.48 433.992 132.896 434.408C133.344 434.76 134.016 434.92 134.592 434.92H136.16C136.672 434.92 137.312 434.792 137.632 434.6C138.048 434.344 138.304 433.96 138.464 433.384C138.624 432.808 138.72 431.112 138.752 429.736C138.24 429.576 137.6 429.256 137.248 428.904C137.216 430.44 137.184 431.656 137.12 432.168C137.056 432.68 136.928 432.936 136.768 433.032C136.608 433.16 136.32 433.192 136.032 433.192H135.04ZM168.736 410.216H157.984L158.24 410.12C157.824 409.032 156.8 407.432 155.808 406.28L153.76 406.856C154.56 407.848 155.328 409.192 155.84 410.216H143.616V412.264H168.736V410.216ZM153.248 417.192C152.704 415.944 151.488 414.024 150.368 412.648L148.576 413.384C149.632 414.792 150.784 416.776 151.296 418.024L153.248 417.192ZM169.568 418.248H161.568C162.496 416.872 163.488 415.112 164.352 413.544L162.112 412.808C161.504 414.408 160.384 416.744 159.456 418.248H144.128V422.6C144.128 425.96 143.776 430.696 141.28 434.184C141.76 434.44 142.656 435.208 143.008 435.656C145.76 431.88 146.304 426.408 146.304 422.664V420.328H169.568V418.248ZM194.56 416.04H181.568V409.672H194.56V416.04ZM196.704 407.624H179.488V418.088H196.704V407.624ZM183.872 423.624V431.624H176.832V423.624H183.872ZM174.816 435.432H176.832V433.672H183.872V435.112H185.984V421.576H174.816V435.432ZM191.648 431.624V423.624H199.328V431.624H191.648ZM189.6 421.576V435.432H191.648V433.672H199.328V435.208H201.44V421.576H189.6ZM213.76 412.488H218.272V410.536H209.952C210.272 409.256 210.496 407.944 210.72 406.6L208.704 406.248C208.192 410.216 207.136 414.152 205.536 416.712C206.016 416.968 206.88 417.544 207.232 417.864C208.096 416.392 208.832 414.536 209.44 412.488H211.744V417.736C211.744 418.248 211.744 418.824 211.712 419.368H205.504V421.32H211.584C211.168 425.48 209.728 430.088 205.344 433.576C205.792 433.864 206.592 434.664 206.848 435.08C209.984 432.584 211.712 429.384 212.672 426.184C214.112 427.976 216.192 430.728 217.024 432.04L218.432 430.344C217.664 429.352 214.464 425.416 213.184 424.072C213.376 423.144 213.504 422.216 213.6 421.32H218.688V419.368H213.728C213.76 418.824 213.76 418.312 213.76 417.8V412.488ZM231.04 417.096V423.72H222.048V417.096H231.04ZM234.592 431.496H222.048V425.704H233.056V415.112H222.048V409.832H234.176V407.848H219.968V435.4H222.048V433.512H234.592V431.496ZM246.688 407.56L246.368 407.656H239.072V435.4H241.056V409.576H245.536C244.832 411.72 243.84 414.536 242.848 416.904C245.216 419.496 245.856 421.704 245.856 423.464C245.856 424.456 245.664 425.352 245.152 425.736C244.896 425.928 244.544 425.992 244.16 426.024C243.648 426.056 243.008 426.056 242.24 425.992C242.592 426.568 242.784 427.368 242.816 427.912C243.488 427.944 244.288 427.944 244.96 427.88C245.568 427.816 246.144 427.624 246.592 427.272C247.424 426.696 247.808 425.288 247.808 423.656C247.808 421.672 247.232 419.336 244.864 416.68C245.952 414.152 247.136 411.016 248.096 408.392L246.688 407.56ZM266.624 427.208H259.488V421.832H265.76V419.88H259.488V415.08H257.408V419.88H252.608C253.728 417.608 254.816 414.888 255.744 412.072H266.208V410.12H256.384C256.736 409 257.024 407.848 257.312 406.76L255.168 406.28C254.912 407.592 254.56 408.872 254.176 410.12H248.736V412.072H253.6C252.704 414.696 251.808 416.904 251.424 417.704C250.816 419.144 250.304 420.136 249.76 420.296C249.984 420.84 250.336 421.832 250.464 422.28C250.752 422.024 251.744 421.832 253.184 421.832H257.408V427.208H248.448V429.192H257.408V435.4H259.488V429.192H266.624V427.208ZM278.208 409.736C280.256 409.288 282.144 408.776 283.648 408.232L282.176 406.568C279.424 407.72 274.304 408.648 270.08 409.224C270.304 409.704 270.56 410.408 270.656 410.92C272.384 410.696 274.24 410.44 276.064 410.152V415.656H269.728V417.64H275.552C274.08 421.736 271.392 426.248 268.96 428.712C269.312 429.224 269.888 430.088 270.144 430.664C272.224 428.424 274.464 424.616 276.064 420.84V435.336H278.208V420.968C279.648 422.76 281.568 425.352 282.304 426.568L283.616 424.84C282.848 423.816 279.392 419.784 278.208 418.504V417.64H283.936V415.656H278.208V409.736ZM287.136 429.32V411.272H294.592V429.32H287.136ZM285.056 409.224V434.024H287.136V431.368H294.592V433.8H296.736V409.224H285.056ZM310.784 432.488C308.928 432.488 307.712 432.04 307.712 431.048C307.712 429.864 308.768 428.136 324.64 418.536C324.864 418.44 325.024 418.312 325.12 418.184L323.616 417.128L323.168 417.224V417.192H305.024V419.208H319.616C306.112 427.528 305.504 429.48 305.504 431.208C305.536 433.32 307.264 434.568 311.008 434.568H324.96C328.192 434.568 329.184 433.608 329.536 428.456C328.896 428.328 328.128 428.072 327.552 427.72C327.392 431.848 326.88 432.488 325.088 432.488H310.784ZM322.496 409.768V406.248H320.352V409.768H311.552V406.248H309.408V409.768H301.952V411.816H309.408V414.824H311.552V411.816H320.352V414.824H322.496V411.816H329.632V409.768H322.496ZM358.784 411.464C357.504 410.184 354.912 408.232 352.928 406.888L351.392 408.2C353.408 409.608 355.936 411.656 357.184 412.968L358.784 411.464ZM361.536 416.456V414.376H349.184V406.312H346.88V414.376H334.208V416.456H346.304C343.456 421.928 338.304 427.304 333.312 429.832C333.792 430.28 334.496 431.112 334.912 431.656C339.328 429.128 343.776 424.616 346.88 419.528V435.432H349.184V418.664C352.384 423.592 356.96 428.616 360.896 431.4C361.28 430.824 362.048 429.992 362.56 429.608C358.24 426.856 353.088 421.48 350.048 416.456H361.536ZM66.56 463.04H53.568V456.672H66.56V463.04ZM68.704 454.624H51.488V465.088H68.704V454.624ZM55.872 470.624V478.624H48.832V470.624H55.872ZM46.816 482.432H48.832V480.672H55.872V482.112H57.984V468.576H46.816V482.432ZM63.648 478.624V470.624H71.328V478.624H63.648ZM61.6 468.576V482.432H63.648V480.672H71.328V482.208H73.44V468.576H61.6ZM80.832 483.232C84.064 482.08 86.208 479.52 86.208 476.064C86.208 473.92 85.312 472.512 83.616 472.512C82.4 472.512 81.312 473.28 81.312 474.72C81.312 476.16 82.336 476.896 83.584 476.896C83.776 476.896 84 476.864 84.192 476.832C84.032 479.104 82.656 480.64 80.16 481.728L80.832 483.232ZM116.704 480.096C115.04 480.096 114.72 479.872 114.72 478.688V466.816H121.984C121.728 470.912 121.408 472.544 121.024 472.992C120.768 473.248 120.512 473.28 120.096 473.28C119.648 473.28 118.496 473.28 117.312 473.152C117.6 473.664 117.824 474.432 117.856 475.008C119.072 475.072 120.288 475.072 120.96 475.008C121.728 474.944 122.24 474.784 122.72 474.24C123.424 473.472 123.744 471.36 124.064 465.824C124.096 465.536 124.128 464.928 124.128 464.928H112.672V478.688C112.672 481.312 113.6 481.952 116.544 481.952H122.624C125.376 481.952 126.016 480.768 126.304 476.352C125.696 476.224 124.896 475.872 124.384 475.552C124.224 479.36 124 480.096 122.496 480.096H116.704ZM118.176 453.344C116.448 457.472 113.088 461.888 109.024 464.832C109.504 465.184 110.24 465.856 110.592 466.272C113.76 463.808 116.544 460.544 118.528 457.024C121.152 459.744 124 463.136 125.408 465.312L126.976 463.904C125.408 461.632 122.144 458.016 119.488 455.296C119.712 454.816 119.904 454.4 120.096 453.92L118.176 453.344ZM130.72 456.992H128.704V474.56H130.72V456.992ZM134.944 453.76V479.488C134.944 480.096 134.688 480.288 134.112 480.32C133.504 480.32 131.488 480.352 129.216 480.288C129.568 480.864 129.856 481.76 129.984 482.304C132.96 482.336 134.656 482.272 135.648 481.92C136.608 481.568 137.056 480.992 137.056 479.456V453.76H134.944ZM158.944 459.2V463.552H149.792V465.408H170.24V463.552H161.056V459.2H168.832V457.344H161.056V453.28H158.944V457.344H155.008C155.488 456.32 155.936 455.264 156.32 454.176L154.336 453.728C153.344 456.736 151.648 459.68 149.632 461.664C150.176 461.856 151.04 462.368 151.456 462.688C152.352 461.728 153.216 460.512 153.984 459.2H158.944ZM154.784 469.824H165.696V475.232H154.784V469.824ZM167.84 476.992V468.032H152.704V476.992H167.84ZM149.248 459.008C148.16 457.472 145.76 455.424 143.648 454.048L142.08 455.328C144.192 456.736 146.56 458.848 147.584 460.416L149.248 459.008ZM148.32 465.824H141.696V467.84H146.272V476.16C144.672 477.536 142.816 479.008 141.312 480L142.464 482.112C144.192 480.736 145.824 479.328 147.36 477.952C149.408 480.48 152.32 481.632 156.544 481.792C159.968 481.92 166.592 481.856 170.016 481.696C170.08 481.056 170.464 480.064 170.72 479.552C167.04 479.808 159.904 479.904 156.512 479.744C152.736 479.616 149.888 478.496 148.32 476.064V465.824ZM173.632 480H189.664V477.76H176.928L189.536 458.144V456.576H174.784V458.816H186.272L173.632 478.432V480ZM201.747 457.888V465.152H196.019V457.888H201.747ZM196.019 474.592V467.04H201.747V474.592H196.019ZM203.763 455.968H194.003V479.072H196.019V476.512H203.763V455.968ZM221.811 459.744H217.843V453.44H215.731V459.744H205.235V461.824H215.731V479.104C215.731 479.744 215.475 479.968 214.803 479.968C214.099 480.032 211.795 480.032 209.235 479.936C209.587 480.576 209.907 481.504 210.035 482.112C213.235 482.144 215.187 482.112 216.307 481.728C217.395 481.376 217.843 480.736 217.843 479.104V461.824H221.811V459.744ZM213.267 472.192C212.147 470.272 209.939 466.976 208.211 464.48L206.483 465.408C208.211 467.872 210.355 471.328 211.379 473.28L213.267 472.192ZM252.979 459.136C251.827 457.696 249.523 455.552 247.571 454.048L246.035 455.04C247.987 456.608 250.259 458.848 251.347 460.32L252.979 459.136ZM233.459 453.6C231.315 458.72 227.763 463.584 224.051 466.72C224.435 467.2 225.075 468.256 225.299 468.736C226.835 467.36 228.371 465.696 229.779 463.84V482.336H231.923V460.8C233.267 458.752 234.451 456.512 235.443 454.24L233.459 453.6ZM253.619 463.744L253.299 461.792L243.603 462.976C243.315 460.128 243.091 456.992 242.995 453.728H240.851C241.011 457.088 241.235 460.288 241.523 463.232L233.523 464.224L233.843 466.24L241.779 465.216C243.027 475.264 245.523 482.016 250.803 482.4C252.467 482.464 253.651 480.768 254.323 475.392C253.875 475.2 252.979 474.72 252.563 474.304C252.211 478.048 251.635 479.968 250.739 479.904C247.155 479.616 244.979 473.664 243.827 464.992L253.619 463.744ZM267.123 467.264H260.115V460.288H267.123V467.264ZM260.115 477.12V469.184H267.123V477.12H260.115ZM263.091 453.184C262.835 454.688 262.259 456.864 261.715 458.368H258.163V481.6H260.115V479.04H269.075V458.368H263.667C264.243 456.992 264.851 455.2 265.363 453.632L263.091 453.184ZM284.755 458.304H275.059C275.603 456.768 276.051 455.168 276.467 453.568L274.419 453.12C273.427 457.536 271.699 461.952 269.523 464.8C270.003 465.088 270.931 465.664 271.315 465.984C272.403 464.448 273.427 462.464 274.323 460.288H282.707C282.291 473.28 281.779 478.208 280.723 479.328C280.403 479.744 280.019 479.808 279.379 479.808C278.675 479.808 276.755 479.808 274.675 479.616C275.059 480.192 275.315 481.056 275.379 481.696C277.171 481.792 278.995 481.856 280.083 481.76C281.139 481.664 281.875 481.408 282.515 480.544C283.795 479.008 284.243 474.112 284.755 459.424V458.304ZM279.731 472.704C278.707 470.784 276.467 467.712 274.611 465.44L272.979 466.4C274.771 468.704 276.947 471.872 277.939 473.824L279.731 472.704ZM301.331 453.92C300.787 455.2 299.699 457.056 298.899 458.208L300.339 458.912C301.203 457.856 302.259 456.192 303.187 454.752L301.331 453.92ZM293.779 458.208C293.459 457.056 292.595 455.36 291.667 454.048L290.035 454.752C290.931 456.064 291.795 457.824 292.083 458.944L293.779 458.208ZM307.731 461.12H313.619C313.011 465.312 312.083 468.832 310.611 471.808C309.267 468.736 308.307 465.152 307.667 461.312L307.731 461.12ZM299.219 472.096C298.803 473.92 298.099 475.424 297.075 476.64C295.795 476 294.419 475.392 293.075 474.848C293.555 473.984 294.035 473.056 294.515 472.096H299.219ZM317.779 461.12V459.136H308.307C308.819 457.376 309.235 455.488 309.555 453.568L307.411 453.248C306.483 458.88 304.819 464.224 302.131 467.616C302.611 467.936 303.507 468.64 303.859 469.024C304.787 467.776 305.619 466.304 306.355 464.672C307.091 468.128 308.051 471.296 309.363 474.016C307.731 476.512 305.555 478.496 302.739 480.032C301.715 479.232 300.403 478.4 298.899 477.6C300.083 476.128 300.851 474.304 301.299 472.096H304.179V470.304H295.411C295.827 469.472 296.211 468.672 296.563 467.904L296.243 467.84H297.459V462.944C299.027 464.064 301.171 465.696 302.003 466.464L303.187 464.928C302.323 464.288 298.835 462.048 297.459 461.248V460.992H304.019V459.2H297.459V453.248H295.475V459.2H288.787V460.992H294.835C293.299 463.136 290.835 465.216 288.499 466.272C288.915 466.656 289.427 467.36 289.683 467.872C291.731 466.752 293.875 464.896 295.475 462.912V467.68L294.579 467.488C294.195 468.352 293.715 469.312 293.235 470.304H288.627V472.096H292.339C291.475 473.792 290.611 475.424 289.875 476.672L291.699 477.376L292.243 476.448C293.395 476.928 294.515 477.44 295.635 478.016C293.939 479.264 291.699 480.064 288.691 480.608C289.107 481.056 289.523 481.824 289.683 482.4C293.075 481.664 295.635 480.576 297.491 479.008C298.995 479.872 300.339 480.768 301.331 481.568L301.939 480.928C302.323 481.408 302.739 482.112 302.931 482.464C306.131 480.832 308.595 478.72 310.483 476.128C312.083 478.784 314.067 480.928 316.563 482.4C316.883 481.824 317.587 481.024 318.099 480.576C315.475 479.2 313.395 476.96 311.795 474.112C313.779 470.656 315.027 466.368 315.827 461.12H317.779ZM324.019 458.784H346.323V464.128H348.499V456.8H336.275V453.184H334.099V456.8H321.939V464.128H324.019V458.784ZM348.915 470.464H336.371V469.312C339.091 467.84 342.035 465.568 343.987 463.392L342.579 462.336L342.131 462.464H326.739V464.416H340.115C338.771 465.696 337.043 467.008 335.347 468H334.163V470.464H321.619V472.48H334.163V479.68C334.163 480.128 334.003 480.288 333.427 480.288C332.851 480.32 330.867 480.32 328.659 480.256C329.043 480.832 329.491 481.76 329.651 482.336C332.307 482.336 333.939 482.336 334.963 482.016C336.019 481.664 336.371 481.024 336.371 479.712V472.48H348.915V470.464ZM359.571 457.376C358.547 456.288 356.531 454.816 354.899 453.824L353.523 455.136C355.187 456.16 357.171 457.792 358.163 458.816L359.571 457.376ZM358.483 465.664C357.459 464.704 355.347 463.328 353.715 462.432L352.435 463.84C354.131 464.768 356.179 466.24 357.171 467.232L358.483 465.664ZM355.059 482.112C356.371 479.104 357.939 474.976 359.027 471.488L357.331 470.4C356.147 474.08 354.387 478.432 353.171 481.024L355.059 482.112ZM362.547 467.424H368.467V470.176H362.547V467.424ZM362.547 463.2H368.467V465.888H362.547V463.2ZM371.187 476.512V474.592H366.515V471.776H370.291V461.6H366.515V458.816H371.059V456.928H366.515V453.312H364.563V456.928H360.083V458.816H364.563V461.6H360.787V471.776H364.563V474.592H359.475V476.512H364.563V482.432H366.515V476.512H371.187ZM374.451 469.568C374.483 468.736 374.483 467.904 374.483 467.168V463.904H378.899V469.568H374.451ZM378.899 456.416V461.984H374.483V456.416H378.899ZM380.819 454.496H372.563V467.168C372.563 471.68 372.275 477.376 369.299 481.312C369.747 481.504 370.547 482.112 370.899 482.464C373.171 479.488 374.003 475.36 374.323 471.52H378.899V479.68C378.899 480.16 378.739 480.288 378.323 480.32C377.939 480.32 376.563 480.352 375.027 480.288C375.283 480.864 375.539 481.792 375.635 482.368C377.715 482.368 378.995 482.304 379.827 481.952C380.563 481.6 380.819 480.928 380.819 479.712V454.496ZM54.688 513.912C59.008 513.72 65.152 513.432 71.04 513.112C71.712 513.912 72.256 514.68 72.64 515.352L74.4 514.296C73.248 512.376 70.624 509.592 68.352 507.672L66.688 508.6C67.648 509.432 68.64 510.392 69.536 511.352C66.368 511.48 63.2 511.608 60.352 511.704C61.344 510.136 62.4 508.184 63.296 506.424H74.304V504.472H64.736V500.28H62.592V504.472H54.048V506.424H60.896C60.16 508.152 59.136 510.232 58.144 511.8C56.8 511.832 55.552 511.864 54.464 511.896L54.688 513.912ZM53.92 504.024C52.704 502.872 50.208 501.432 48.224 500.568L47.008 502.104C49.056 503.032 51.488 504.568 52.704 505.72L53.92 504.024ZM52.384 512.344C51.104 511.288 48.544 509.912 46.528 509.112L45.376 510.712C47.424 511.608 49.92 513.048 51.2 514.104L52.384 512.344ZM51.968 517.24C50.24 520.856 47.936 525.112 46.304 527.576L48.16 528.952C49.856 525.976 52 521.944 53.568 518.552L51.968 517.24ZM56.96 518.584C56.96 521.592 56.544 525.24 52.608 527.96C53.088 528.28 53.792 528.92 54.144 529.368C58.4 526.264 58.912 522.2 58.912 518.648V515.256H56.96V518.584ZM62.592 528.024H64.512V515.416H62.592V528.024ZM71.04 527.192C70.816 527.192 70.592 527.16 70.464 527.064C70.304 526.904 70.272 526.552 70.272 525.912V515.256H68.32V525.656C68.32 527.512 68.48 527.992 68.896 528.408C69.344 528.76 70.016 528.92 70.592 528.92H72.16C72.672 528.92 73.312 528.792 73.632 528.6C74.048 528.344 74.304 527.96 74.464 527.384C74.624 526.808 74.72 525.112 74.752 523.736C74.24 523.576 73.6 523.256 73.248 522.904C73.216 524.44 73.184 525.656 73.12 526.168C73.056 526.68 72.928 526.936 72.768 527.032C72.608 527.16 72.32 527.192 72.032 527.192H71.04ZM93.152 526.328V517.88H103.584V515.832H93.152V508.6H104.736V506.52H93.152V500.28H90.944V506.52H84.16C84.864 504.856 85.472 503.064 85.984 501.272L83.872 500.824C82.624 505.4 80.576 509.816 77.92 512.664C78.464 512.952 79.424 513.592 79.84 513.944C81.056 512.472 82.24 510.68 83.232 508.6H90.944V515.832H81.312V517.88H90.944V526.328H77.856V528.408H106.24V526.328H93.152ZM111.808 528.12C113.216 525.944 114.304 522.552 115.008 519.96L113.12 519.32C112.512 521.848 111.36 525.08 109.888 527.128L111.808 528.12ZM121.248 526.776C119.168 526.776 118.784 526.584 118.784 525.656V519.288H116.704V525.656C116.704 528.088 117.664 528.696 121.184 528.696H128.832C131.808 528.696 132.512 527.736 132.8 523.832C132.192 523.672 131.36 523.352 130.88 523C130.688 526.264 130.432 526.776 128.736 526.776H121.248ZM120.256 513.784C122.144 514.904 124.32 516.6 125.376 517.784L127.232 516.536C126.08 515.32 123.872 513.72 122.016 512.664L120.256 513.784ZM121.12 518.424C123.008 520.12 125.28 522.52 126.304 524.024L128.064 522.872C126.944 521.368 124.64 519.064 122.752 517.464L121.12 518.424ZM131.968 519.416C133.6 522.104 135.2 525.72 135.776 527.96L137.824 527.224C137.216 524.984 135.52 521.432 133.856 518.808L131.968 519.416ZM138.176 506.808V504.824H124.512C124.832 503.32 125.056 501.784 125.248 500.184H123.04C122.88 501.752 122.656 503.32 122.336 504.824H109.92V506.808H121.76C120.256 511.064 117.12 514.648 109.6 516.536C110.016 516.984 110.528 517.816 110.784 518.328C119.072 516.12 122.4 511.896 124 506.808H124.096C126.432 512.568 130.688 516.472 136.992 518.232C137.312 517.624 137.952 516.76 138.432 516.28C132.608 514.936 128.48 511.608 126.24 506.808H138.176ZM146.208 519.224C143.584 519.224 141.408 521.368 141.408 524.024C141.408 526.712 143.584 528.856 146.208 528.856C148.896 528.856 151.04 526.712 151.04 524.024C151.04 521.368 148.896 519.224 146.208 519.224ZM146.208 527.352C144.416 527.352 142.912 525.88 142.912 524.024C142.912 522.232 144.416 520.728 146.208 520.728C148.064 520.728 149.536 522.232 149.536 524.024C149.536 525.88 148.064 527.352 146.208 527.352Z" fill="white"/>
</svg>
