<svg id="图层_1" data-name="图层 1" xmlns="http://www.w3.org/2000/svg" viewBox="0 0 277.1 178"><defs><style>.cls-1{fill:#fff;}</style></defs><path class="cls-1" d="M324.92,173.1l-11.53-6.81c-28-13.38-85.4-21.47-140.16-18.75a305.13,305.13,0,0,0-36.31,4.11V98.11h-2.28v53.94a380.62,380.62,0,0,0-66.08,18s20.18-7.65,65.88-11.65a30.73,30.73,0,0,1-9.38,20.37,25.12,25.12,0,0,1-17.65,7.06H57.9v2.61h49.54a26.15,26.15,0,0,1,20.9,10.53c.06.09.13.17.2.26,4.12,5.55,6.1,12.77,6.1,20.05v15.66l-6.38,2.22c2.1.14,4.25.24,6.38.35v38.63h2.28v-38.5c12.17.61,24.83.83,37.88.58,88.91-1.72,160.63-23.81,160.2-49.35C334.9,183.24,331.35,177.94,324.92,173.1Zm-69.28,36.42S259,196.7,288.1,181.65L136.92,234.12V219.26c0-7.29,2-14.52,6.11-20.07.48-.64,1-1.27,1.5-1.88a25.57,25.57,0,0,1,19.5-8.9h49.63V185.8H164.15a25.12,25.12,0,0,1-17.65-7.06,30.81,30.81,0,0,1-9.41-20.6c18.81-1.55,41.77-2.47,69.27-2,57.95,3.31,104.23,19,103.36,35C309.09,202.54,255.64,209.52,255.64,209.52Z" transform="translate(-57.9 -98.11)"/></svg>