<svg id="图层_1" data-name="图层 1" xmlns="http://www.w3.org/2000/svg" viewBox="0 0 1403.82 226.57"><defs><style>.cls-1{fill:#fff;}</style></defs><path class="cls-1" d="M484.47,121.93c112.8,6.44,202.85,36.92,201.15,68.09-1.21,22.26-105.23,35.83-105.23,35.83s6.56-24.93,63.18-54.23l-311.07,108c28.69,1.92,59.09,2.68,90.56,2.07,173-3.34,312.61-46.34,311.77-96.05-.19-10.89-7.11-21.2-19.62-30.63,0,0,.18-13.53,71.53-49.2-22.6,8.32-94,35.95-94,35.95-54.47-26-166.2-41.79-272.78-36.49S216.31,149,216.31,149,295.58,118.86,484.47,121.93Z" transform="translate(-94.09 -104.21)"/><path class="cls-1" d="M396.35,313.07C283.56,306.63,193.51,276.15,195.21,245c1.21-22.26,105.23-35.83,105.23-35.83s-6.56,24.93-63.18,54.23l311.07-108c-28.69-1.92-59.09-2.68-90.56-2.07-173,3.34-312.61,46.34-311.77,96,.19,10.89,7.11,21.2,19.62,30.63,0,0-.18,13.53-71.53,49.2,22.59-8.32,94-36,94-36,54.47,26,166.2,41.79,272.78,36.49S664.52,286,664.52,286,585.25,316.14,396.35,313.07Z" transform="translate(-94.09 -104.21)"/><path class="cls-1" d="M1487.79,183.08H1340.32a81.93,81.93,0,0,1-66,33.3c-.78,0-1.55,0-2.32-.06l-94,94a12,12,0,0,0,8.49,20.45s127.86-.22,146.7-.23a81.93,81.93,0,0,1,66-33.3l.62,0,.57,0c7.73-7.73,48.76-46.38,48.76-46.38s-86.22,45.79-123.09,45.79h-95.14l66-66c11.3-11.3,38.06-25.57,52.93-25.57h104.93A14.76,14.76,0,0,1,1468.57,225l-1,2.65,27.35-27.35A10.1,10.1,0,0,0,1487.79,183.08Z" transform="translate(-94.09 -104.21)"/><path class="cls-1" d="M1007.92,249.46s-86.22,45.78-123.08,45.78H789.7l66-66c11.3-11.3,38.06-25.57,52.92-25.57h104.93a14.74,14.74,0,0,1,13.81,19.91l-1,2.69,27.35-27.35a10.1,10.1,0,0,0-7.14-17.25H899.1a81.93,81.93,0,0,1-66,33.3c-.78,0-1.55,0-2.32-.06-6.65,6.64-50.31,64.34-82.86,84a375,375,0,0,1-51.5,25.59,2.68,2.68,0,0,0,1,5.17l47.8-.34s130.65-.23,147.3-.23c0,0,29.73-33.3,66.6-33.3C966.9,288.11,1007.92,249.46,1007.92,249.46Z" transform="translate(-94.09 -104.21)"/><path class="cls-1" d="M1029.44,297.47,1207,224.13l-58.23,58.22h36.64l71.93-71.93,4.62-3.58c27.58-20.15,56-25.05,56-25.05h-71.28c-.4,0-.79,0-1.19,0h-109a37.29,37.29,0,0,0-22,7.3c-27.58,20.15-56,25.05-56,25.05h144.25l-175.29,72.4,57.28-57.28h-36.63l-71.93,71.93-4.62,3.58c-27.58,20.15-56,25-56,25h71.28c.39,0,.79.05,1.19.05h109a37.25,37.25,0,0,0,22-7.3c27.58-20.14,56-25,56-25Z" transform="translate(-94.09 -104.21)"/></svg>