<svg width="36" height="30" viewBox="0 0 36 30" fill="none" xmlns="http://www.w3.org/2000/svg">
<path d="M8.26099 7.18375C13.6606 9.92399 18.2202 9.76227 18.2202 9.76227C18.2202 9.76227 16.4907 3.7068 21.8364 1.02047C27.1821 -1.66586 30.8612 2.86227 30.8612 2.86227C30.8612 2.86227 31.7956 2.60621 32.4874 2.35016C33.1836 2.0941 34.1854 1.6359 34.1854 1.6359L32.5368 4.59176L35.0749 4.32223C35.0749 4.32223 34.7604 4.78043 33.7452 5.71481C32.7299 6.64918 32.3122 7.13434 32.3122 7.13434C32.3122 7.13434 32.676 14.4252 28.8532 20.0359C25.0303 25.6466 20.0934 29.0158 12.9194 29.7255C5.74536 30.4353 1.07349 27.5154 1.07349 27.5154C1.07349 27.5154 4.20903 27.3357 6.20806 26.5675C8.20708 25.7994 11.0821 23.7779 11.0821 23.7779C11.0821 23.7779 6.99419 22.5156 5.52524 21.0916C4.0563 19.672 3.69243 18.8275 3.69243 18.8275L7.72642 18.7736C7.72642 18.7736 3.4813 16.5095 2.27739 14.7172C1.07349 12.9248 0.91626 11.1908 0.91626 11.1908L4.02036 12.4486C4.02036 12.4486 1.44185 8.92672 1.07349 6.18649C0.705127 3.44625 1.54517 1.97281 1.54517 1.97281C1.54517 1.97281 2.86138 4.44352 8.26099 7.18375Z" fill="white"/>
</svg>
