<svg id="图层_1" data-name="图层 1" xmlns="http://www.w3.org/2000/svg" viewBox="0 0 171.81 151.31"><defs><style>.cls-1{fill:#fff;}</style></defs><path class="cls-1" d="M275.42,137.85c-2.67-4.93-19.64-.56-49.13,14,5.05-21.66,3.52-34.83-3.32-38.09-8.3-3.95-22,7.84-37.81,35.63-33.63-21.94-56.49-26-64.12-15.45s2.29,32.34,31.49,60.1c-38.33,24.66-51.33,39-48.1,44.92,2.87,5.31,17.72,2.53,49-13.33-5.55,22.45-3,34.23,4.39,37.72,8.83,4.2,21.77-4.8,38-34.56,34.53,23.29,54.25,24.42,62.2,13.43s1.38-31-30.51-60C262.3,159.18,278.42,143.41,275.42,137.85Zm-58.71-9.72c5.35,2.54,7.18,11.57,4.69,26.17q-7.87,4-16.84,8.89-8.61-6.58-16.5-11.86C199.75,132.63,210.06,125,216.71,128.13Zm-5.58,60.59c-5.73,3.67-12,7.52-18.85,11.59-6.07,3.59-11.62,6.74-16.76,9.56-3.87-3.1-7.5-6.17-10.8-9.16q2.28-6.39,5.37-13.73c3.54-2.19,7.24-4.45,11.28-6.84q12.65-7.47,23.19-13.06c.89.68,1.75,1.32,2.65,2,3.06,2.42,5.84,4.76,8.48,7.06Q213.71,182.11,211.13,188.72Zm7.08-10.34c1.25,1.13,2.42,2.23,3.57,3.32q-3.06,2.1-6.42,4.29C216.37,183.39,217.32,180.86,218.21,178.38ZM209,194c-.79,1.91-1.58,3.82-2.44,5.8a247.67,247.67,0,0,1-11.82,23.92,199.37,199.37,0,0,1-16.35-11.57c4.57-2.6,9.3-5.32,14.35-8.31C198.5,200.45,203.86,197.18,209,194Zm-36.42,17.46q-7.17,3.87-13.14,6.76a147.74,147.74,0,0,1,4.12-14.28Q167.88,207.65,172.59,211.46Zm-10.3-13.05c-1.4-1.3-2.75-2.6-4-3.88,2.38-1.57,4.86-3.19,7.54-4.88Q163.91,194.2,162.29,198.41Zm10.05-16.69a256.33,256.33,0,0,1,13.87-27.33c4.86,3,10,6.4,15.38,10.42-7.16,4-14.75,8.29-22.87,13.09C176.5,179.21,174.45,180.45,172.34,181.72Zm37.51-14.47c-.78-.61-1.51-1.15-2.28-1.75q6.94-3.63,12.9-6.43c-.92,4.21-2.15,8.82-3.71,13.8C214.53,171,212.27,169.16,209.85,167.25Zm-72.07-20.1c6.35-8.78,22.57-7.76,45.56,5.52-4.72,8.61-9.61,18.54-14.59,30-.25.57-.45,1.08-.69,1.64-4.39,2.67-8.43,5.2-12.31,7.67C136.9,172.24,131.38,156,137.78,147.15Zm-11.16,78.67c-2.3-4.25,5.51-13.65,28.65-29.29,1.85,1.72,3.74,3.45,5.74,5.2-2.55,6.85-4.58,13-6.16,18.66C137.27,228.42,128.57,229.42,126.62,225.82ZM164.12,249c-5.77-2.75-8.35-10.93-5.67-25.92q7.88-4.09,17-9.23c.15.13.29.25.45.37,6,4.76,11.68,9,17,12.66C181,246.56,171.19,252.32,164.12,249Zm77.16-20c-6.58,9.1-20.66,10.11-43.67-3.54,3.61-6.87,7.36-14.69,11.28-23.68,1.55-3.56,3-7,4.34-10.36,3.94-2.47,7.63-4.84,11.19-7.17C244.83,204.56,248.07,219.59,241.28,229Zm-16.56-49.29q-2.55-2.27-5.31-4.59c2.28-6.53,4.1-12.53,5.57-18.09,16.71-7.45,26.45-9.34,28.24-6C255.35,154.89,245.77,165,224.72,179.68Z" transform="translate(-103.96 -113)"/><ellipse class="cls-1" cx="100.96" cy="59.95" rx="20.99" ry="21.95"/></svg>